<svg xmlns="http://www.w3.org/2000/svg" width="500" height="500" viewBox="0 0 500 500">
<g>
<path d="M 249.75 300.19 C242.07,300.52 207.07,300.51 206.03,300.17 C205.43,299.97 205.00,296.31 205.00,291.50 L 205.00 283.16 L 207.90 282.52 C210.18,282.02 210.92,281.20 211.37,278.69 C211.68,276.94 211.96,255.06 211.98,230.07 C212.01,184.75 212.01,184.63 209.83,182.32 C208.63,181.04 207.05,180.00 206.33,180.00 C204.90,180.00 204.88,179.83 204.88,171.50 C204.88,168.48 204.90,165.32 204.94,164.50 C204.99,163.21 208.42,163.00 229.50,163.00 L 254.00 163.00 L 254.00 171.42 C254.00,179.75 253.97,179.84 251.08,181.12 C249.13,181.99 247.98,183.37 247.58,185.33 C246.72,189.67 246.91,215.31 247.82,216.74 C248.41,217.67 253.66,217.92 269.05,217.74 L 289.50 217.50 L 289.79 201.50 C289.94,192.70 289.85,184.59 289.58,183.48 C289.30,182.38 287.71,180.95 286.04,180.32 L 283.00 179.17 L 283.00 163.00 L 331.84 163.00 L 332.17 170.70 C332.41,176.21 332.12,178.69 331.18,179.45 C330.05,180.35 329.16,180.89 328.47,181.61 C325.97,184.22 325.98,189.23 326.00,222.10 C326.00,225.31 326.00,228.78 326.00,232.55 L 326.00 281.10 L 328.90 282.11 C332.34,283.31 332.66,284.40 332.19,293.22 C331.84,299.88 331.80,299.95 328.67,300.52 C326.35,300.94 294.78,300.60 283.75,300.04 C283.34,300.02 283.01,296.29 283.02,291.75 L 283.04 283.50 L 289.50 280.50 L 289.50 238.50 L 269.57 238.28 C257.07,238.14 249.17,238.44 248.40,239.09 C247.00,240.24 246.47,265.19 247.62,275.37 C248.22,280.69 248.58,281.39 251.15,282.36 C253.97,283.43 254.00,283.53 254.00,291.72 L 254.00 300.00 ZM 213.00 291.12 C213.00,291.60 220.20,292.00 229.00,292.00 C242.01,292.00 245.00,291.74 245.00,290.61 C245.00,289.84 244.35,288.96 243.55,288.66 C242.76,288.35 241.33,286.62 240.37,284.80 C238.90,281.99 238.58,277.64 238.19,255.75 L 237.75 230.00 L 299.00 230.00 L 298.99 251.75 C298.99,277.57 298.12,284.57 294.53,287.70 C293.14,288.91 292.00,290.38 292.00,290.95 C292.00,291.64 297.51,292.00 308.00,292.00 C321.22,292.00 324.00,291.75 324.00,290.57 C324.00,289.78 323.14,288.86 322.09,288.53 C321.04,288.20 319.47,286.13 318.59,283.94 C317.21,280.49 317.00,273.58 317.01,232.23 C317.01,202.60 317.40,183.10 318.04,180.80 C318.61,178.76 320.18,176.22 321.53,175.15 C326.26,171.44 324.84,171.00 308.00,171.00 C297.51,171.00 292.00,171.36 292.00,172.05 C292.00,172.62 293.14,174.09 294.54,175.30 C298.09,178.38 299.13,186.46 298.78,208.50 L 298.50 226.50 L 238.50 226.50 L 238.58 204.00 C238.65,184.75 238.91,181.02 240.38,178.20 C241.33,176.38 242.76,174.65 243.55,174.34 C244.35,174.04 245.00,173.16 245.00,172.39 C245.00,171.26 242.01,171.00 229.00,171.00 C213.29,171.00 210.53,171.61 215.08,174.05 C219.82,176.58 220.00,178.64 219.99,230.72 C219.99,261.53 219.60,280.89 218.94,283.26 C218.37,285.33 216.80,287.74 215.45,288.62 C214.10,289.51 213.00,290.63 213.00,291.12 Z" fill="rgb(9,23,50)"/>
<path d="M 213.00 291.12 C213.00,290.63 214.10,289.51 215.45,288.62 C216.80,287.74 218.37,285.33 218.94,283.26 C219.60,280.89 219.99,261.53 219.99,230.72 C220.00,178.64 219.82,176.58 215.08,174.05 C210.53,171.61 213.29,171.00 229.00,171.00 C242.01,171.00 245.00,171.26 245.00,172.39 C245.00,173.16 244.35,174.04 243.55,174.34 C242.76,174.65 241.33,176.38 240.38,178.20 C238.91,181.02 238.65,184.75 238.58,204.00 L 238.50 226.50 L 298.50 226.50 L 298.78 208.50 C299.13,186.46 298.09,178.38 294.54,175.30 C293.14,174.09 292.00,172.62 292.00,172.05 C292.00,171.36 297.51,171.00 308.00,171.00 C324.84,171.00 326.26,171.44 321.53,175.15 C320.18,176.22 318.61,178.76 318.04,180.80 C317.40,183.10 317.01,202.60 317.01,232.23 C317.00,273.58 317.21,280.49 318.59,283.94 C319.47,286.13 321.04,288.20 322.09,288.53 C323.14,288.86 324.00,289.78 324.00,290.57 C324.00,291.75 321.22,292.00 308.00,292.00 C297.51,292.00 292.00,291.64 292.00,290.95 C292.00,290.38 293.14,288.91 294.53,287.70 C298.12,284.57 298.99,277.57 298.99,251.75 L 299.00 230.00 L 237.75 230.00 L 238.19 255.75 C238.58,277.64 238.90,281.99 240.37,284.80 C241.33,286.62 242.76,288.35 243.55,288.66 C244.35,288.96 245.00,289.84 245.00,290.61 C245.00,291.74 242.01,292.00 229.00,292.00 C220.20,292.00 213.00,291.60 213.00,291.12 ZM 206.39 244.56 C211.43,248.10 211.48,247.82 211.76,215.07 C211.84,205.89 211.90,199.48 211.87,194.94 C212.00,201.68 211.99,212.46 211.98,230.07 C211.97,239.47 211.93,248.43 211.86,256.05 C211.68,252.51 211.33,250.71 210.79,250.37 C210.13,249.96 203.27,249.53 195.54,249.41 C179.63,249.16 177.36,249.15 177.05,248.36 C177.00,248.23 177.00,248.07 177.00,247.90 C177.00,247.86 177.00,247.82 177.00,247.79 C177.00,247.12 178.15,245.66 179.55,244.54 C183.59,241.31 184.15,233.23 183.77,183.71 C183.42,137.32 183.12,134.21 178.89,131.94 C177.85,131.39 177.00,130.27 177.00,129.46 C177.00,127.39 223.80,127.35 235.50,129.41 C256.24,133.07 271.86,143.32 279.39,158.19 L 282.07 163.50 L 283.00 163.49 L 283.00 179.17 L 286.04 180.32 C286.31,180.42 286.59,180.55 286.85,180.69 C285.66,180.54 285.56,181.63 285.84,187.40 C286.18,194.51 284.04,207.41 281.47,213.67 C280.75,215.41 280.45,217.12 280.80,217.47 C280.85,217.51 280.93,217.56 281.04,217.60 L 269.05 217.74 C265.49,217.78 262.47,217.80 259.93,217.79 C261.33,217.57 262.40,217.22 262.80,216.74 C264.78,214.36 266.09,196.15 265.05,185.50 C262.91,163.52 254.17,147.93 239.00,139.02 C230.42,133.98 223.53,132.15 212.00,131.84 L 202.50 131.58 L 202.24 184.54 C201.97,240.10 202.07,241.53 206.39,244.56 ZM 151.32 340.10 C149.08,342.31 140.85,343.45 139.18,341.78 C137.92,340.52 137.55,327.27 138.66,323.13 C139.26,320.90 139.64,320.79 144.75,321.31 C150.84,321.94 153.50,323.76 154.32,327.86 C155.08,331.63 153.53,337.92 151.32,340.10 ZM 349.75 340.22 C348.21,342.19 338.52,343.65 337.53,342.05 C337.16,341.45 336.84,336.85 336.83,331.85 C336.80,322.03 337.28,321.04 342.18,321.02 C347.20,320.99 350.00,322.69 350.00,325.78 C350.00,327.33 349.47,329.13 348.82,329.78 C347.92,330.68 348.04,331.39 349.32,332.81 C351.31,335.00 351.48,338.00 349.75,340.22 ZM 180.20 336.25 C179.94,341.18 179.62,342.00 177.95,342.00 C176.15,342.00 176.00,341.25 176.00,332.00 C176.00,322.78 176.15,322.00 177.93,322.00 C179.96,322.00 183.25,325.92 184.44,329.75 C184.82,330.99 185.44,331.99 185.82,331.99 C186.19,331.98 187.74,329.73 189.25,326.99 C191.13,323.58 192.63,322.00 194.00,322.00 C195.87,322.00 196.00,322.67 196.00,332.00 C196.00,341.33 195.87,342.00 194.00,342.00 C192.30,342.00 192.00,341.33 192.00,337.56 C192.00,332.05 190.89,331.22 188.63,335.05 C187.67,336.67 186.51,338.00 186.04,338.00 C185.58,338.00 184.14,336.31 182.85,334.25 L 180.50 330.50 ZM 234.00 331.94 C234.00,337.41 233.58,342.14 233.06,342.46 C232.55,342.78 230.48,340.89 228.48,338.27 C226.48,335.65 224.31,333.50 223.67,333.50 C223.01,333.50 222.37,335.35 222.19,337.75 C221.94,341.19 221.51,342.00 219.94,342.00 C218.15,342.00 218.00,341.23 218.00,332.00 C218.00,322.78 218.15,322.00 219.93,322.00 C221.76,322.00 226.00,326.72 226.00,328.75 C226.00,329.27 226.90,330.50 228.00,331.50 C229.98,333.29 230.00,333.25 230.00,327.65 C230.00,322.67 230.24,322.00 232.00,322.00 C233.87,322.00 234.00,322.67 234.00,331.94 ZM 300.19 338.25 C299.95,341.19 299.46,342.00 297.94,342.00 C296.15,342.00 296.00,341.23 296.00,332.00 C296.00,322.67 296.13,322.00 298.00,322.00 C299.45,322.00 300.00,322.67 300.00,324.42 C300.00,328.33 301.06,330.00 303.55,330.00 C306.25,330.00 307.38,328.57 307.45,325.03 C307.49,323.18 308.11,322.41 309.79,322.18 C312.05,321.85 312.07,321.94 311.79,331.66 C311.54,340.03 311.25,341.53 309.77,341.81 C308.44,342.06 307.90,341.20 307.39,338.02 C306.76,334.12 306.56,333.91 303.61,334.20 C300.80,334.47 300.47,334.86 300.19,338.25 ZM 329.93 340.37 C327.83,343.04 325.19,343.56 321.47,342.05 C318.07,340.67 316.93,338.46 316.49,332.39 C315.95,324.95 316.69,322.00 319.11,322.00 C320.78,322.00 321.00,322.80 321.00,328.81 C321.00,336.73 322.71,340.22 325.69,338.39 C327.13,337.51 327.56,335.74 327.79,329.64 C328.05,322.82 328.29,322.00 330.04,322.00 C331.82,322.00 332.00,322.72 332.00,329.87 C332.00,336.31 331.63,338.21 329.93,340.37 ZM 271.00 340.00 C269.91,342.04 267.53,342.67 266.60,341.17 C266.32,340.71 267.58,336.32 269.39,331.42 C273.79,319.54 275.24,319.47 279.71,330.94 C281.52,335.59 283.00,339.97 283.00,340.69 C283.00,342.79 279.20,342.20 278.50,340.00 C278.06,338.61 276.99,338.00 274.97,338.00 C273.09,338.00 271.69,338.71 271.00,340.00 ZM 172.00 340.61 C172.00,341.64 170.49,342.00 166.17,342.00 C162.96,342.00 160.03,341.70 159.67,341.33 C159.30,340.97 159.00,336.47 159.00,331.33 L 159.00 322.00 L 165.00 322.00 C169.45,322.00 171.00,322.36 171.00,323.39 C171.00,324.18 169.50,325.06 167.50,325.43 C164.92,325.92 164.00,326.60 164.00,328.05 C164.00,329.62 164.69,330.00 167.57,330.00 C170.44,330.00 171.08,330.35 170.82,331.75 C170.60,332.90 169.38,333.61 167.24,333.81 C164.81,334.05 164.00,334.61 164.00,336.06 C164.00,337.44 164.69,338.00 166.42,338.00 C169.87,338.00 172.00,338.99 172.00,340.61 ZM 213.50 340.00 C213.50,341.14 212.00,341.57 207.21,341.80 L 200.93 342.10 L 201.21 332.30 L 201.50 322.50 L 207.33 322.20 C212.50,321.93 213.13,322.10 212.83,323.70 C212.60,324.91 211.42,325.60 209.24,325.81 C206.85,326.04 206.00,326.62 206.00,328.00 C206.00,329.38 206.85,329.96 209.25,330.19 C213.65,330.61 213.62,333.33 209.21,334.00 C207.40,334.27 205.94,334.84 205.96,335.25 C205.98,335.66 206.00,336.42 206.00,336.94 C206.00,337.46 207.69,338.02 209.75,338.19 C212.28,338.40 213.50,338.99 213.50,340.00 ZM 248.00 333.98 C248.00,340.51 247.72,342.00 246.47,342.00 C244.47,342.00 244.10,340.79 243.77,333.01 C243.52,327.03 243.28,326.41 240.75,325.20 C236.08,322.97 237.67,322.00 246.00,322.00 C252.12,322.00 254.00,322.32 254.00,323.38 C254.00,324.13 252.65,325.02 251.00,325.35 L 248.00 325.95 ZM 144.06 338.04 C146.58,339.60 149.47,336.69 149.80,332.26 C150.15,327.59 148.20,325.00 144.31,325.00 C141.81,325.00 141.77,325.12 142.20,331.08 C142.47,334.86 143.18,337.49 144.06,338.04 ZM 262.00 332.00 C262.00,341.33 261.87,342.00 260.00,342.00 C258.13,342.00 258.00,341.33 258.00,332.00 C258.00,322.67 258.13,322.00 260.00,322.00 C261.87,322.00 262.00,322.67 262.00,332.00 ZM 247.35 246.19 C247.60,242.24 247.95,239.45 248.40,239.09 C249.01,238.57 254.14,238.28 262.51,238.25 L 255.05 242.16 ZM 341.67 338.33 C343.49,340.15 347.86,337.20 346.53,335.04 C345.38,333.18 341.00,333.81 341.00,335.83 C341.00,336.84 341.30,337.97 341.67,338.33 ZM 341.17 327.83 C340.90,329.77 341.23,330.10 343.17,329.83 C346.18,329.40 346.48,325.50 343.50,325.50 C342.17,325.50 341.39,326.28 341.17,327.83 ZM 273.22 330.80 C272.21,333.69 272.29,334.00 274.05,334.00 C276.09,334.00 276.37,332.81 275.10,329.55 C274.42,327.83 274.20,327.98 273.22,330.80 ZM 247.52 274.44 C247.10,269.97 246.94,263.24 247.01,256.86 L 247.01 258.44 C247.01,264.17 247.23,270.83 247.52,274.44 ZM 289.18 182.66 C289.37,182.95 289.51,183.22 289.58,183.48 C289.68,183.90 289.76,185.32 289.80,187.39 C289.70,185.11 289.51,183.64 289.18,182.66 ZM 211.42 278.23 C211.40,278.44 211.39,278.60 211.37,278.69 C210.92,281.20 210.18,282.02 207.90,282.52 C209.84,282.09 210.88,281.30 211.42,278.23 ZM 326.01 163.00 L 331.84 162.93 L 332.17 170.66 L 331.84 163.00 ZM 247.03 198.19 C247.05,192.42 247.23,187.10 247.58,185.33 C247.26,186.95 247.07,192.34 247.03,198.19 ZM 247.79 216.69 C247.96,216.86 248.24,217.02 248.59,217.17 C248.17,217.04 247.92,216.90 247.82,216.74 C247.81,216.72 247.80,216.71 247.79,216.69 ZM 248.32 279.65 C248.80,281.22 249.54,281.76 251.15,282.36 C249.54,281.75 248.80,281.25 248.32,279.65 Z" fill="rgb(219,215,213)"/>
<path d="M 289.18 182.66 C289.51,183.64 289.70,185.11 289.80,187.39 C289.88,190.81 289.88,196.02 289.79,201.50 L 289.50 217.50 L 289.78 201.63 C289.96,190.85 289.69,185.33 288.91,184.39 C286.96,182.04 286.00,183.89 286.00,190.02 C286.00,191.83 285.70,194.58 285.23,197.63 C285.73,193.83 285.98,190.17 285.84,187.40 C285.56,181.63 285.66,180.54 286.85,180.69 C287.82,181.21 288.69,181.95 289.18,182.66 ZM 273.22 330.80 C274.20,327.98 274.42,327.83 275.10,329.55 C276.37,332.81 276.09,334.00 274.05,334.00 C272.29,334.00 272.21,333.69 273.22,330.80 ZM 148.42 326.61 C147.93,326.21 147.32,326.00 146.60,326.00 C144.22,326.00 142.60,329.08 142.30,332.21 C142.26,331.84 142.23,331.47 142.20,331.08 C141.77,325.12 141.81,325.00 144.31,325.00 C146.11,325.00 147.49,325.55 148.42,326.61 ZM 211.42 278.23 C210.88,281.30 209.84,282.09 207.90,282.52 L 205.00 283.16 L 205.00 283.10 L 208.50 280.43 L 211.42 278.20 ZM 350.52 334.68 C350.25,334.02 349.85,333.38 349.32,332.81 C348.04,331.39 347.92,330.68 348.82,329.78 C349.41,329.19 349.90,327.67 349.99,326.23 C350.34,328.68 350.54,331.92 350.52,334.68 ZM 225.57 327.32 C226.79,328.88 228.04,330.00 228.63,330.00 C229.56,330.00 230.00,328.72 230.00,326.00 C230.00,323.27 230.22,322.33 231.22,322.08 C230.16,322.35 230.00,323.52 230.00,327.65 C230.00,333.25 229.98,333.29 228.00,331.50 C226.90,330.50 226.00,329.27 226.00,328.75 C226.00,328.36 225.84,327.86 225.57,327.32 ZM 182.97 326.52 C184.32,328.48 185.69,330.00 186.12,330.00 C186.59,330.00 188.16,328.20 189.62,326.00 C190.06,325.33 190.54,324.71 191.02,324.17 C190.46,324.91 189.88,325.85 189.25,326.99 C187.74,329.73 186.19,331.98 185.82,331.99 C185.44,331.99 184.82,330.99 184.44,329.75 C184.09,328.65 183.58,327.54 182.97,326.52 ZM 180.20 336.25 L 180.50 330.50 L 182.85 334.25 C184.14,336.31 185.58,338.00 186.04,338.00 C186.20,338.00 186.45,337.84 186.74,337.56 L 186.00 338.50 L 184.01 336.00 C182.32,333.88 181.86,333.73 181.02,335.00 C180.48,335.83 180.02,337.74 180.02,339.25 C180.00,341.33 179.51,342.00 178.00,342.00 L 177.97 342.00 C179.63,341.99 179.94,341.16 180.20,336.25 ZM 349.45 323.68 C349.02,322.95 348.34,322.36 347.42,321.93 C348.16,322.13 348.72,322.37 348.96,322.64 C349.14,322.83 349.30,323.19 349.45,323.68 ZM 338.74 321.57 C337.84,322.09 337.35,323.05 337.09,324.84 C337.30,323.10 337.64,322.17 338.15,321.83 C338.30,321.73 338.50,321.65 338.74,321.57 ZM 282.46 210.88 C281.95,212.71 281.45,214.16 281.02,214.96 C281.02,214.97 281.01,214.99 281.00,215.01 C281.12,214.58 281.28,214.12 281.47,213.67 C281.81,212.84 282.14,211.91 282.46,210.88 ZM 145.34 338.46 C146.29,338.43 147.37,337.79 148.24,336.83 C147.43,337.91 146.39,338.52 145.34,338.46 ZM 191.35 333.00 C191.79,333.62 192.00,335.13 192.00,337.56 C192.00,335.67 191.73,333.87 191.35,333.00 ZM 223.18 324.11 C222.01,322.92 220.75,322.01 219.95,322.00 C219.96,322.00 219.97,322.00 219.99,322.00 C220.84,322.00 222.00,322.79 223.18,324.11 ZM 188.31 335.57 C188.42,335.40 188.52,335.23 188.63,335.05 C188.99,334.44 189.32,333.95 189.63,333.57 C189.32,334.13 188.85,334.85 188.31,335.57 ZM 211.86 256.05 L 211.86 256.32 C211.68,252.57 211.34,250.71 210.80,250.37 C211.34,250.71 211.68,252.51 211.86,256.05 ZM 179.32 322.47 C178.83,322.17 178.36,322.00 177.95,322.00 L 177.99 322.00 C178.38,322.00 178.83,322.16 179.32,322.47 ZM 144.06 338.04 C143.96,337.97 143.85,337.88 143.75,337.75 C143.89,337.89 144.04,338.01 144.20,338.12 C144.15,338.09 144.11,338.07 144.06,338.04 ZM 280.78 217.44 C280.85,217.50 280.96,217.55 281.12,217.60 L 281.04 217.60 C280.93,217.56 280.85,217.51 280.80,217.47 C280.79,217.46 280.78,217.45 280.78,217.44 ZM 194.10 322.00 C194.11,322.00 194.12,322.00 194.13,322.00 C194.55,322.00 194.88,322.06 195.13,322.27 C194.87,322.06 194.53,322.01 194.10,322.00 Z" fill="rgb(205,159,134)"/>
<path d="M 0.00 250.00 L 0.00 0.00 L 250.00 0.00 L 500.00 0.00 L 500.00 250.00 L 500.00 500.00 L 250.00 500.00 L 0.00 500.00 L 0.00 250.00 ZM 151.32 340.10 C153.53,337.92 155.08,331.63 154.32,327.86 C153.50,323.76 150.84,321.94 144.75,321.31 C139.64,320.79 139.26,320.90 138.66,323.13 C137.55,327.27 137.92,340.52 139.18,341.78 C140.85,343.45 149.08,342.31 151.32,340.10 ZM 234.00 331.94 C234.00,322.67 233.87,322.00 232.00,322.00 C230.33,322.00 230.00,322.67 230.00,326.00 C230.00,328.72 229.56,330.00 228.63,330.00 C227.88,330.00 226.07,328.20 224.62,326.00 C223.01,323.56 221.19,322.00 219.99,322.00 C218.14,322.00 218.00,322.69 218.00,332.00 C218.00,341.23 218.15,342.00 219.94,342.00 C221.51,342.00 221.94,341.19 222.19,337.75 C222.37,335.35 223.01,333.50 223.67,333.50 C224.31,333.50 226.48,335.65 228.48,338.27 C230.48,340.89 232.55,342.78 233.06,342.46 C233.58,342.14 234.00,337.41 234.00,331.94 ZM 329.93 340.37 C331.63,338.21 332.00,336.31 332.00,329.87 C332.00,322.72 331.82,322.00 330.04,322.00 C328.29,322.00 328.05,322.82 327.79,329.64 C327.56,335.74 327.13,337.51 325.69,338.39 C322.71,340.22 321.00,336.73 321.00,328.81 C321.00,322.80 320.78,322.00 319.11,322.00 C316.69,322.00 315.95,324.95 316.49,332.39 C316.93,338.46 318.07,340.67 321.47,342.05 C325.19,343.56 327.83,343.04 329.93,340.37 ZM 349.77 340.19 C351.14,338.44 350.49,324.30 348.96,322.64 C347.80,321.37 339.72,320.76 338.15,321.83 C337.18,322.49 336.81,325.30 336.83,331.85 C336.84,336.85 337.16,341.45 337.53,342.05 C338.53,343.67 348.21,342.19 349.77,340.19 ZM 172.00 340.61 C172.00,338.99 169.87,338.00 166.42,338.00 C164.69,338.00 164.00,337.44 164.00,336.06 C164.00,334.61 164.81,334.05 167.24,333.81 C169.38,333.61 170.60,332.90 170.82,331.75 C171.08,330.35 170.44,330.00 167.57,330.00 C164.69,330.00 164.00,329.62 164.00,328.05 C164.00,326.60 164.92,325.92 167.50,325.43 C169.50,325.06 171.00,324.18 171.00,323.39 C171.00,322.36 169.45,322.00 165.00,322.00 L 159.00 322.00 L 159.00 331.33 C159.00,336.47 159.30,340.97 159.67,341.33 C160.03,341.70 162.96,342.00 166.17,342.00 C170.49,342.00 172.00,341.64 172.00,340.61 ZM 180.02 339.25 C180.02,337.74 180.48,335.83 181.02,335.00 C181.86,333.73 182.32,333.88 184.01,336.00 L 186.00 338.50 L 187.98 336.00 C189.07,334.62 189.97,333.14 189.98,332.69 C189.99,332.25 190.45,332.16 191.00,332.50 C191.55,332.84 192.00,335.12 192.00,337.56 C192.00,341.33 192.30,342.00 194.00,342.00 C195.87,342.00 196.00,341.33 196.00,332.00 C196.00,322.90 195.83,322.00 194.13,322.00 C193.06,322.00 191.14,323.71 189.62,326.00 C188.16,328.20 186.59,330.00 186.12,330.00 C185.65,330.00 184.07,328.20 182.62,326.00 C181.01,323.56 179.19,322.00 177.99,322.00 C176.14,322.00 176.00,322.69 176.00,332.00 C176.00,341.33 176.13,342.00 178.00,342.00 C179.51,342.00 180.00,341.33 180.02,339.25 ZM 213.50 340.00 C213.50,338.99 212.28,338.40 209.75,338.19 C207.69,338.02 206.00,337.46 206.00,336.94 C206.00,336.42 205.98,335.66 205.96,335.25 C205.94,334.84 207.40,334.27 209.21,334.00 C213.62,333.33 213.65,330.61 209.25,330.19 C206.85,329.96 206.00,329.38 206.00,328.00 C206.00,326.62 206.85,326.04 209.24,325.81 C211.42,325.60 212.60,324.91 212.83,323.70 C213.13,322.10 212.50,321.93 207.33,322.20 L 201.50 322.50 L 201.21 332.30 L 200.93 342.10 L 207.21 341.80 C212.00,341.57 213.50,341.14 213.50,340.00 ZM 248.00 333.98 L 248.00 325.95 L 251.00 325.35 C252.65,325.02 254.00,324.13 254.00,323.38 C254.00,322.32 252.12,322.00 246.00,322.00 C237.67,322.00 236.08,322.97 240.75,325.20 C243.28,326.41 243.52,327.03 243.77,333.01 C244.10,340.79 244.47,342.00 246.47,342.00 C247.72,342.00 248.00,340.51 248.00,333.98 ZM 262.00 332.00 C262.00,322.67 261.87,322.00 260.00,322.00 C258.13,322.00 258.00,322.67 258.00,332.00 C258.00,341.33 258.13,342.00 260.00,342.00 C261.87,342.00 262.00,341.33 262.00,332.00 ZM 271.00 340.00 C271.69,338.71 273.09,338.00 274.97,338.00 C276.99,338.00 278.06,338.61 278.50,340.00 C279.20,342.20 283.00,342.79 283.00,340.69 C283.00,339.97 281.52,335.59 279.71,330.94 C275.24,319.47 273.79,319.54 269.39,331.42 C267.58,336.32 266.32,340.71 266.60,341.17 C267.53,342.67 269.91,342.04 271.00,340.00 ZM 300.19 338.25 C300.47,334.86 300.80,334.47 303.61,334.20 C306.56,333.91 306.76,334.12 307.39,338.02 C307.90,341.20 308.44,342.06 309.77,341.81 C311.25,341.53 311.54,340.03 311.79,331.66 C312.07,321.94 312.05,321.85 309.79,322.18 C308.11,322.41 307.49,323.18 307.45,325.03 C307.38,328.57 306.25,330.00 303.55,330.00 C301.06,330.00 300.00,328.33 300.00,324.42 C300.00,322.67 299.45,322.00 298.00,322.00 C296.13,322.00 296.00,322.67 296.00,332.00 C296.00,341.23 296.15,342.00 297.94,342.00 C299.46,342.00 299.95,341.19 300.19,338.25 ZM 249.75 300.19 L 254.00 300.00 L 254.00 291.72 C254.00,283.54 253.97,283.43 251.16,282.37 C248.65,281.42 248.24,280.64 247.67,275.90 C247.31,272.93 247.01,265.07 247.01,258.44 L 247.00 246.37 L 255.05 242.16 L 263.10 237.94 L 276.30 238.22 L 289.50 238.50 L 289.50 259.50 L 289.50 280.50 L 286.27 282.00 L 283.04 283.50 L 283.02 291.75 C283.01,296.29 283.34,300.02 283.75,300.04 C294.78,300.60 326.35,300.94 328.67,300.52 C331.80,299.95 331.84,299.88 332.19,293.22 C332.66,284.40 332.34,283.31 328.90,282.11 L 326.00 281.10 L 326.00 232.55 C326.00,179.54 325.57,183.91 331.18,179.45 C332.13,178.69 332.41,176.20 332.17,170.66 L 331.84 162.93 L 306.96 163.22 L 282.07 163.50 L 279.39 158.19 C271.86,143.32 256.24,133.07 235.50,129.41 C223.80,127.35 177.00,127.39 177.00,129.46 C177.00,130.27 177.85,131.39 178.89,131.94 C183.12,134.21 183.42,137.32 183.77,183.71 C184.15,233.23 183.59,241.31 179.55,244.54 C178.15,245.66 177.00,247.12 177.00,247.79 C177.00,249.15 176.47,249.11 195.54,249.41 C203.27,249.53 210.13,249.96 210.79,250.37 C211.64,250.89 212.00,255.12 212.00,264.44 L 212.00 277.76 L 208.50 280.43 L 205.00 283.10 L 205.00 291.47 C205.00,296.30 205.43,299.97 206.03,300.17 C207.07,300.51 242.07,300.52 249.75,300.19 ZM 144.32 338.20 C140.51,335.84 142.35,326.00 146.60,326.00 C149.21,326.00 150.39,328.75 149.83,333.52 C149.47,336.54 146.17,339.34 144.32,338.20 ZM 341.67 338.33 C341.30,337.97 341.00,336.84 341.00,335.83 C341.00,333.81 345.38,333.18 346.53,335.04 C347.86,337.20 343.49,340.15 341.67,338.33 ZM 341.17 327.83 C341.39,326.28 342.17,325.50 343.50,325.50 C346.48,325.50 346.18,329.40 343.17,329.83 C341.23,330.10 340.90,329.77 341.17,327.83 ZM 206.39 244.56 C202.07,241.53 201.97,240.10 202.24,184.54 L 202.50 131.58 L 212.00 131.84 C223.53,132.15 230.42,133.98 239.00,139.02 C254.17,147.93 262.91,163.52 265.05,185.50 C266.09,196.15 264.78,214.36 262.80,216.74 C261.17,218.71 248.38,218.44 247.61,216.42 C246.83,214.40 246.81,189.19 247.58,185.33 C247.98,183.37 249.13,181.99 251.08,181.12 C253.97,179.84 254.00,179.75 254.00,171.42 L 254.00 163.00 L 229.50 163.00 C208.42,163.00 204.99,163.21 204.94,164.50 C204.90,165.32 204.88,168.48 204.88,171.50 C204.88,179.83 204.90,180.00 206.33,180.00 C207.05,180.00 208.64,181.05 209.84,182.33 C212.01,184.64 212.03,184.98 211.76,215.07 C211.48,247.82 211.43,248.10 206.39,244.56 ZM 280.75 217.42 C280.38,217.04 280.50,215.94 281.02,214.96 C282.88,211.49 286.00,195.84 286.00,190.02 C286.00,183.89 286.96,182.04 288.91,184.39 C289.69,185.33 289.96,190.85 289.78,201.63 L 289.50 217.50 L 285.46 217.80 C283.24,217.96 281.12,217.79 280.75,217.42 Z" fill="rgb(254,145,76)"/>
</g>
</svg>