<svg version="1.1" id="Layer_1" xmlns="http://www.w3.org/2000/svg" xmlns:xlink="http://www.w3.org/1999/xlink" x="0px" y="0px"
	 width="100%" viewBox="0 0 992 992" enable-background="new 0 0 992 992" xml:space="preserve">
<path fill="#000000" opacity="1.000000" stroke="none" 
	d="
M293.066254,497.194458 
	C282.717560,493.741638 272.401367,492.257690 261.996429,491.310852 
	C258.857697,491.025177 255.700455,491.267059 252.656067,490.035278 
	C248.223099,488.241699 247.335281,485.931274 250.234451,482.097473 
	C254.750778,476.125214 259.633789,470.427032 264.071838,464.399506 
	C272.814575,452.525574 280.044617,439.645020 282.289276,425.017914 
	C284.500153,410.610992 282.678070,396.448059 276.231445,382.818237 
	C268.661102,366.812531 256.492065,355.009247 243.701187,343.504547 
	C241.771942,341.769287 238.004730,340.533112 239.274963,337.040161 
	C240.628265,333.318695 244.415619,334.665955 247.211731,334.723938 
	C259.726318,334.983551 272.254822,334.653412 284.564667,332.602875 
	C307.339417,328.809143 327.243011,319.778870 339.138702,298.506866 
	C346.511230,285.323181 347.228302,270.809143 346.488190,256.117249 
	C345.638245,239.245026 341.354706,223.205215 334.939941,207.660538 
	C334.389771,206.327286 333.688110,204.854080 334.905640,203.362686 
	C337.214630,202.620865 338.096985,204.662994 339.285309,205.844864 
	C350.488831,216.987778 360.589630,229.236420 372.921173,239.248917 
	C386.778107,250.499908 401.645691,259.981934 418.322205,266.639954 
	C425.974426,269.695068 433.878174,271.753296 441.717804,274.086334 
	C444.717255,274.978973 447.689056,274.398743 449.577118,271.362640 
	C456.847168,259.672058 467.440216,252.348221 480.240509,247.816132 
	C489.347229,244.591797 498.735565,244.643417 508.222656,244.510193 
	C519.108154,244.357346 528.923706,247.022278 537.668762,253.414444 
	C540.273010,255.318008 542.384766,254.406448 544.520020,252.980148 
	C558.790955,243.447433 572.781677,233.550797 584.992798,221.376221 
	C588.060486,218.317749 591.158997,215.290131 594.256897,212.262238 
	C596.908875,209.670242 598.849548,210.210388 600.317505,213.551178 
	C601.287903,215.759796 601.372437,218.078888 601.518738,220.395035 
	C602.502136,235.967972 605.848206,250.909851 614.687012,264.012756 
	C622.611023,275.759583 634.124573,281.896851 647.942200,284.890167 
	C658.326111,287.139648 668.341064,286.339294 678.582336,284.860809 
	C683.065125,284.213623 687.213379,282.611694 691.541870,281.558380 
	C693.277161,281.136078 695.131226,279.720886 696.630005,281.432739 
	C698.066101,283.072845 696.249451,284.512909 695.543701,285.905151 
	C686.081238,304.571808 680.760620,324.376190 681.549500,345.279205 
	C682.444763,369.000183 693.976501,386.715637 714.642090,398.533691 
	C726.589600,405.366119 739.382568,410.180420 752.464600,414.076508 
	C757.390259,415.543518 762.494080,417.607208 767.984619,416.819672 
	C770.289185,416.489136 772.707886,417.095490 772.738037,419.888489 
	C772.765198,422.400238 770.641785,423.508911 768.268494,423.705231 
	C754.978149,424.804626 743.146240,430.189209 731.497620,436.137878 
	C711.075745,446.566833 697.524353,462.952301 689.830566,484.350586 
	C687.469910,490.916138 686.224670,497.885925 685.828674,504.724030 
	C685.175049,516.011902 683.531860,527.263977 684.124268,538.632324 
	C684.455261,544.982361 682.664307,546.655090 676.406006,545.269165 
	C669.644043,543.771729 663.107361,541.233765 656.193726,540.355042 
	C645.418640,538.985413 634.660461,538.209229 624.684021,543.912964 
	C618.917847,547.209595 611.849060,557.520447 610.889404,563.908936 
	C612.567688,565.435852 614.661926,564.728149 616.558289,564.734619 
	C633.890015,564.793823 651.221924,564.755615 668.553833,564.783875 
	C674.411926,564.793396 675.964478,566.391968 675.827209,572.202148 
	C675.744751,575.695801 675.387024,579.188232 675.427429,582.678040 
	C675.466614,586.061462 674.147095,587.603455 670.669800,587.363220 
	C668.191956,587.191956 665.692749,587.330017 662.717773,587.330017 
	C663.575073,592.813904 667.117310,596.529114 669.322876,600.811829 
	C673.348267,608.627991 677.069092,616.543091 680.136719,624.789001 
	C680.952393,626.981506 682.018066,629.134338 679.680237,630.511047 
	C677.121399,632.017761 675.714539,629.510437 674.602905,627.813904 
	C668.856384,619.044250 662.251709,610.647034 657.859375,601.227966 
	C652.409546,589.541321 644.535889,585.340454 632.031250,587.059753 
	C624.833435,588.049561 617.389587,587.315918 610.057861,587.233154 
	C607.112122,587.199890 605.552551,588.022278 605.110291,591.332703 
	C604.503845,595.873108 600.125183,597.706238 596.633606,594.578796 
	C590.775146,589.331238 582.859497,586.198730 579.597229,578.143005 
	C578.639526,575.778198 576.282166,574.313232 573.554199,574.303101 
	C558.558228,574.247559 543.561890,574.265930 528.565735,574.277283 
	C527.887085,574.277832 527.281982,574.561951 527.019226,575.441406 
	C527.975525,577.692017 530.062195,577.406921 532.026184,577.583618 
	C534.005981,577.761780 536.985901,576.790833 537.123962,579.983032 
	C537.247253,582.833435 534.358582,582.993652 532.328552,583.371033 
	C526.267883,584.497681 520.146729,585.242432 513.969116,585.247620 
	C482.638367,585.273804 451.307587,585.270020 419.976837,585.279541 
	C411.310638,585.282227 402.622223,585.671875 393.986237,585.165039 
	C388.496643,584.842834 384.345734,586.690063 380.507019,590.135498 
	C374.062836,595.919434 367.611115,601.695007 361.147400,607.457031 
	C359.548798,608.882080 358.010620,610.732483 355.505096,609.419067 
	C353.335754,608.281921 352.853363,606.280029 352.723206,603.954285 
	C352.486755,599.729126 353.754272,595.708923 354.112396,591.567871 
	C354.603485,585.889282 354.159088,585.279358 348.310394,585.269165 
	C343.144928,585.260193 337.978607,585.201355 332.814209,585.273254 
	C328.561340,585.332397 326.983215,583.185608 326.796783,579.110596 
	C326.055389,562.904541 326.079285,562.797546 339.698822,562.837219 
	C348.129242,562.861755 352.413879,557.036011 349.904572,548.725037 
	C346.834869,538.557800 341.987946,529.249451 334.632385,521.579712 
	C323.224884,509.684845 308.911804,502.451569 293.066254,497.194458 
M542.288574,313.754181 
	C536.586487,314.046234 532.617249,311.030060 529.019836,307.048737 
	C523.580811,301.029358 519.927124,294.011078 516.834473,286.598206 
	C514.996033,282.191650 513.755493,282.145416 510.787476,285.965302 
	C510.175354,286.753174 509.604218,287.574036 509.036682,288.395233 
	C502.708862,297.551666 494.939331,305.233856 485.316315,310.858917 
	C479.325287,314.360931 472.926971,316.515686 465.776001,314.857758 
	C461.940186,313.968445 461.831665,315.963013 462.986176,318.779572 
	C463.769226,320.689972 465.745453,322.244781 464.860443,324.654785 
	C463.167725,326.113312 460.581482,325.386353 458.627136,327.644043 
	C464.148224,330.088593 466.595276,334.809479 468.690552,339.920990 
	C473.586151,351.864075 484.544220,356.177246 495.563782,358.211578 
	C513.808594,361.579773 528.097290,352.409576 534.966431,335.156006 
	C535.885132,332.848480 536.881104,330.989197 539.954163,330.297119 
	C545.000183,329.160736 548.882874,322.338959 547.710083,317.337402 
	C547.220703,315.250610 546.642395,312.119659 543.010925,313.987122 
	C543.010925,313.987122 543.038940,313.963837 542.288574,313.754181 
M351.280640,299.492889 
	C345.467834,312.045502 337.114594,322.541931 324.940552,329.269653 
	C304.986511,340.296753 283.304810,343.318359 260.819489,341.636566 
	C257.933960,341.420746 255.097519,341.177307 251.398392,341.760010 
	C274.774414,359.707458 291.845551,381.216339 293.469849,410.730713 
	C295.104706,440.436737 280.797821,463.864014 257.588379,483.816711 
	C266.854797,484.394135 274.368256,485.248535 281.845612,486.288971 
	C294.746460,488.083984 306.956757,491.334229 318.588165,497.112274 
	C330.176147,502.868805 340.895294,509.681976 348.389038,520.576782 
	C351.264282,524.756836 353.914093,529.091980 356.832306,533.613159 
	C359.217438,531.692444 359.742767,529.570435 359.814972,527.165466 
	C359.945496,522.818665 359.460785,518.529114 359.018005,514.215942 
	C358.738617,511.493988 358.201050,509.445435 355.241913,508.537506 
	C352.842194,507.801270 351.849060,505.830780 352.460968,503.407227 
	C353.075684,500.972717 355.153564,500.787842 357.257446,500.793335 
	C362.422424,500.806824 367.587555,500.764313 372.752502,500.781586 
	C374.936279,500.788879 377.633667,500.680664 378.137878,503.278259 
	C378.649597,505.914551 376.607941,507.481873 374.088562,508.039062 
	C371.351624,508.644409 370.357513,510.364471 370.211517,513.048950 
	C369.719818,522.091492 370.004181,530.958374 373.868225,539.435425 
	C376.555084,545.329956 378.820923,551.416870 381.259094,557.424255 
	C384.064545,564.336609 387.558472,565.789185 395.987732,562.418457 
	C394.285248,561.259583 392.889038,560.590759 391.855652,559.558655 
	C386.345032,554.054993 383.554779,547.282043 382.600494,539.606873 
	C380.472595,522.492554 385.747986,506.468079 389.723938,490.252136 
	C391.695770,482.209991 394.570923,474.147125 392.182587,465.828247 
	C389.817505,457.590271 389.488586,449.094910 388.074921,440.745850 
	C387.206451,435.616608 386.822510,430.310089 392.575745,427.126617 
	C393.286652,426.733215 393.744324,425.488495 393.911407,424.564545 
	C396.822052,408.468048 406.773926,396.695892 418.964294,387.238007 
	C432.942291,376.393219 437.604950,362.071655 438.746094,345.561157 
	C440.051331,326.676819 438.615753,307.577606 442.972870,288.938660 
	C443.893921,284.998627 441.612030,284.298218 438.802307,283.763397 
	C414.310425,279.101837 392.715088,268.243134 372.955231,253.304688 
	C367.990265,249.551193 363.860870,244.668030 357.689911,241.512604 
	C358.123474,261.242767 360.237793,280.624542 351.280640,299.492889 
M687.759521,462.300385 
	C700.801880,439.914764 721.548523,428.147736 745.641724,420.958008 
	C737.245056,418.617065 729.338745,416.183350 721.574219,413.246338 
	C705.019165,406.984070 691.807922,396.566925 682.049072,381.790894 
	C676.572998,373.499329 674.130005,364.223480 672.017578,354.575806 
	C669.244385,341.910431 672.035278,329.867889 673.810059,317.603821 
	C674.872375,310.262665 677.961304,303.436737 679.544617,295.941742 
	C671.746826,295.941742 664.458740,296.125336 657.183105,295.902283 
	C643.405090,295.479828 630.997070,290.608643 620.500610,282.031097 
	C603.714050,268.313263 597.804626,249.192947 596.028809,228.404938 
	C595.825745,226.027771 596.166626,223.574860 595.048462,220.913879 
	C594.029236,221.765518 593.339478,222.228302 592.787598,222.819717 
	C579.882812,236.649048 565.044434,248.176346 549.582703,258.934021 
	C546.611389,261.001343 547.425354,262.776367 548.918335,265.173889 
	C557.737732,279.337250 561.759033,295.091797 563.142273,311.466309 
	C564.332397,325.555389 564.942200,339.718719 567.450439,353.635132 
	C570.338074,369.656403 576.528137,384.097137 589.048706,395.363770 
	C597.284546,402.774872 604.154907,411.329803 606.659119,422.589722 
	C607.334839,425.628021 607.659912,428.785187 611.708984,429.746460 
	C613.600952,430.195648 614.032471,432.450317 613.817993,434.395294 
	C612.851929,443.157867 612.702148,452.126587 610.617920,460.618439 
	C608.346130,469.874329 610.092529,478.257538 612.467957,486.968628 
	C615.337585,497.491882 618.603333,507.940369 619.493896,518.933289 
	C619.877014,523.661804 621.614441,528.204285 621.536743,533.796814 
	C640.329346,525.373718 657.981567,528.063843 675.692200,536.254761 
	C673.099487,523.162415 673.740479,510.681580 675.025024,498.375458 
	C676.342041,485.757965 680.403381,473.731781 687.759521,462.300385 
M600.341248,494.247803 
	C598.209839,492.322968 595.560425,491.265747 593.115112,489.854095 
	C586.336304,485.940674 578.576416,486.601685 571.314819,484.966858 
	C568.758606,484.391327 566.386292,483.664246 566.091125,480.514038 
	C565.818542,477.605377 567.391968,475.809296 569.845581,474.635254 
	C572.578430,473.327606 575.004761,471.678619 577.043396,469.368195 
	C582.615784,463.053009 590.960571,459.612915 595.233887,451.905579 
	C595.494568,451.435455 596.372131,451.275360 596.988953,451.039734 
	C602.006287,449.123444 603.694885,444.341949 606.124207,440.260101 
	C607.029053,438.739777 606.548767,435.979706 605.345947,435.732513 
	C600.827393,434.803955 598.125793,430.191742 593.294739,430.188721 
	C533.979858,430.151428 474.665009,430.083923 415.350128,430.093658 
	C408.066528,430.094879 405.380524,435.092194 409.470886,441.276520 
	C413.103973,446.769531 417.859283,450.465363 425.213348,449.977448 
	C430.962769,449.596039 436.927643,448.833984 442.482544,451.308502 
	C446.637268,453.159302 451.089508,455.300598 451.452209,460.448395 
	C451.828796,465.792328 447.281250,467.999603 443.383606,470.276337 
	C437.074280,473.961792 429.899811,475.097900 422.950684,476.654083 
	C408.258881,479.944214 399.721039,493.206879 400.263672,501.829987 
	C400.897827,511.907715 402.357758,521.951721 403.848907,531.952271 
	C405.410126,542.422913 407.702576,552.788574 409.105591,563.276367 
	C409.581604,566.834656 410.893097,567.865784 414.047607,567.867065 
	C422.379547,567.870300 430.712006,567.910217 439.043091,568.021790 
	C441.194397,568.050598 443.715302,567.742920 445.421692,568.718079 
	C450.958954,571.882324 455.612335,569.769775 460.370880,567.129944 
	C463.160736,565.582214 466.045685,564.620117 469.365967,564.557617 
	C476.712402,564.419495 483.922699,564.321472 490.459106,568.585083 
	C492.393463,569.846802 494.912872,569.821838 497.272736,569.821838 
	C527.435547,569.822266 557.598389,569.848145 587.761230,569.831238 
	C591.545471,569.829102 595.878479,570.152588 592.971069,563.995850 
	C592.670959,563.360291 593.075012,562.373962 593.201233,561.557922 
	C596.249573,541.850830 599.280945,522.141052 602.384705,502.442688 
	C602.826111,499.640930 602.349670,497.157166 600.341248,494.247803 
M531.395996,399.917389 
	C533.089355,398.093536 534.939026,396.389099 536.443054,394.420593 
	C539.454102,390.479645 538.780212,388.742889 534.025452,387.406128 
	C532.119568,386.870300 530.226746,386.280365 528.350891,385.647217 
	C521.019348,383.172516 520.289368,382.230469 520.063416,374.697266 
	C519.958801,371.207977 519.926575,367.714264 519.963379,364.223602 
	C520.003357,360.434753 519.383301,358.608063 514.765015,360.491150 
	C508.518219,363.038361 502.133972,364.709778 494.995758,362.406738 
	C491.690399,361.340302 488.257233,359.807312 484.096558,359.341309 
	C483.864899,364.196442 483.025665,368.856720 483.578217,373.345703 
	C484.336761,379.507904 480.866577,382.571289 476.535278,385.317657 
	C474.429443,386.652954 471.900818,387.019867 469.491547,387.675018 
	C464.829437,388.942810 464.315796,390.991028 467.166779,394.836792 
	C472.324524,401.794189 479.441132,406.196320 487.381042,408.745117 
	C503.213257,413.827423 517.830200,410.826355 531.395996,399.917389 
M372.734711,586.456543 
	C370.256012,584.510742 366.739990,584.142822 365.066040,585.986206 
	C362.441010,588.876892 362.153687,593.122314 362.192230,597.937073 
	C366.285431,593.990601 369.960602,590.969177 372.734711,586.456543 
z"/>
<path fill="#000000" opacity="1.000000" stroke="none" 
	d="
M562.457886,849.740295 
	C558.827393,849.452759 557.905518,847.469299 557.937927,844.568970 
	C558.000854,838.926819 557.956360,833.283569 557.956360,827.147522 
	C554.745544,828.087402 553.885254,830.465393 552.608765,832.467285 
	C548.403320,839.062317 545.316772,839.135132 540.791382,832.969788 
	C539.470032,831.169678 538.412415,828.990417 535.631714,827.890320 
	C534.770630,833.367859 535.019897,838.657959 535.285706,843.877014 
	C535.516052,848.399963 533.402771,849.902893 529.413696,849.845947 
	C522.929932,849.753357 516.447327,849.584351 509.963715,849.476929 
	C506.947540,849.426941 505.603912,847.513184 504.679749,844.993042 
	C503.417664,841.551453 501.845245,838.698120 497.261780,839.162415 
	C492.379852,839.657043 486.586090,837.500671 484.704193,844.810303 
	C483.680237,848.787476 480.767334,849.301697 476.784851,849.766663 
	C465.069397,851.134460 456.025146,848.193481 450.585022,837.097839 
	C450.253418,836.421509 449.439484,835.981689 448.436096,835.045837 
	C446.864166,838.179626 447.092743,841.191833 447.320038,844.031250 
	C447.688965,848.640320 445.501587,850.014771 441.376953,849.581604 
	C440.383942,849.477356 439.368896,849.335510 438.385315,849.430725 
	C433.979218,849.857361 432.651306,847.863708 432.723175,843.562500 
	C432.937592,830.733826 432.908234,817.896423 432.683929,805.067444 
	C432.600525,800.294922 434.331146,798.344482 439.119232,798.702209 
	C445.708038,799.194580 452.350891,797.942383 458.874237,800.478638 
	C468.870453,804.365356 472.718903,817.201721 466.071686,825.657104 
	C462.923187,829.662048 464.657257,836.180786 469.417236,837.990601 
	C472.509552,839.166260 473.186157,836.355652 473.998260,834.644653 
	C476.419525,829.543640 478.495087,824.278748 480.714172,819.081543 
	C483.000427,813.727173 485.382568,808.411621 487.556366,803.012146 
	C488.855408,799.785583 490.920502,798.517151 494.458710,798.657349 
	C497.839233,798.791321 500.439606,799.062500 501.973602,802.820374 
	C506.994232,815.119873 512.322388,827.294128 517.568848,839.500732 
	C518.194336,840.955994 518.499084,842.643127 520.622986,844.149475 
	C520.622986,831.041321 520.541199,818.490173 520.694092,805.941895 
	C520.723572,803.522888 519.482849,800.334167 522.930786,798.959717 
	C526.676270,797.466736 532.991821,799.027100 535.185852,801.946533 
	C537.786316,805.406738 540.311646,808.923401 542.859131,812.423218 
	C543.925110,813.887695 544.748169,815.593384 547.071289,816.299316 
	C551.502869,812.426880 553.938354,806.823486 557.640747,802.216614 
	C559.939270,799.356506 566.921448,797.370300 570.114441,798.929504 
	C571.901978,799.802490 572.107178,801.492188 572.109802,803.189209 
	C572.131409,817.021606 572.221191,830.854980 572.086914,844.686035 
	C572.021484,851.420959 566.748474,849.518311 562.457886,849.740295 
M452.061981,813.489075 
	C450.157532,813.117065 448.357208,813.032471 447.659363,815.394104 
	C447.298950,816.613953 447.508514,817.786865 448.717346,818.380371 
	C450.110168,819.064392 451.723846,819.230835 452.925018,818.144104 
	C454.434906,816.777954 454.095215,815.214722 452.061981,813.489075 
z"/>
<path fill="#000000" opacity="1.000000" stroke="none" 
	d="
M388.045288,773.891602 
	C386.418823,771.435730 387.494690,768.039307 384.438385,766.664978 
	C382.268158,767.517822 381.827972,769.393494 381.273804,771.361511 
	C380.013550,775.837280 378.754608,780.334473 377.102539,784.673401 
	C375.168335,789.753540 370.470490,787.060669 367.037750,787.603821 
	C364.377014,788.024780 363.097778,786.494751 362.317749,783.310913 
	C359.917023,773.512085 356.659241,763.922913 353.724457,754.255310 
	C352.332703,749.670776 350.934204,745.088196 349.502930,740.515869 
	C349.131866,739.330444 348.952789,738.281067 350.095428,737.377930 
	C354.061951,734.242249 364.031555,737.685730 365.604431,742.533081 
	C367.168091,747.352295 367.558777,752.625671 371.011017,757.297119 
	C373.863190,752.621948 374.925079,747.599304 376.503845,742.838013 
	C377.636688,739.421631 378.631042,736.733765 383.010712,736.679199 
	C387.442871,736.624084 391.257721,736.670349 392.402222,742.210571 
	C393.102386,745.599976 394.457977,748.853455 395.509399,752.171082 
	C396.058990,753.905273 396.457825,755.740051 398.918884,756.529724 
	C400.837372,753.291992 401.993195,749.748108 402.690460,746.062622 
	C404.341553,737.335327 404.983459,736.735535 413.614075,736.739258 
	C423.779633,736.743591 433.945190,736.754883 444.110718,736.786499 
	C450.808929,736.807251 451.280914,737.332153 451.219604,744.410522 
	C451.165802,750.622437 450.422241,751.304443 443.749695,751.262268 
	C436.405090,751.215759 436.405090,751.215759 433.576294,752.789124 
	C435.206116,756.034851 438.266479,755.385132 440.853455,755.320496 
	C448.471436,755.130310 451.533020,759.349182 448.965118,766.703674 
	C448.216583,768.847595 446.570465,769.272522 444.632660,769.299316 
	C441.967285,769.336060 439.298828,769.287720 436.637177,769.402954 
	C435.053528,769.471436 433.555542,770.033875 433.468719,771.919861 
	C433.363342,774.209229 435.092194,774.598389 436.855347,774.632874 
	C440.186951,774.697998 443.521027,774.697449 446.853241,774.656921 
	C453.186646,774.579956 450.804749,779.459351 451.357056,782.607666 
	C451.973816,786.123779 450.556519,787.981079 446.797180,787.941895 
	C438.965302,787.860107 431.132355,787.878845 423.299835,787.867249 
	C419.879913,787.862183 418.336700,786.683838 418.473206,782.762085 
	C418.832367,772.441833 418.692627,762.102905 418.660370,751.771729 
	C418.655579,750.235901 419.314941,748.410645 416.879608,746.702759 
	C414.987854,753.075378 413.157135,759.149475 411.384399,765.240356 
	C409.621613,771.297119 407.651978,777.311401 406.274261,783.456665 
	C405.245880,788.043640 402.113342,787.833069 398.694122,787.973694 
	C394.975952,788.126648 392.108215,787.205261 390.931366,783.290283 
	C390.025452,780.276794 389.100159,777.269104 388.045288,773.891602 
z"/>
<path fill="#000000" opacity="1.000000" stroke="none" 
	d="
M365.354126,799.479797 
	C374.744781,802.010132 379.875793,808.376648 383.033478,817.878967 
	C384.610443,814.960388 385.757080,813.055420 386.701569,811.055054 
	C392.845062,798.043091 411.754517,795.481323 421.900269,801.465149 
	C423.847900,802.613892 426.587463,803.859436 425.872864,806.589600 
	C425.006561,809.899475 423.710266,813.339294 420.762115,815.479980 
	C419.059570,816.716187 417.757782,814.827759 416.335419,814.104614 
	C409.747040,810.754639 402.725067,812.376770 399.746307,817.902527 
	C396.073730,824.715210 397.595306,831.880188 403.460358,835.361694 
	C406.873444,837.387634 410.306244,836.820679 413.760681,835.992065 
	C413.721893,834.285889 412.854523,834.178955 412.049072,834.052673 
	C405.288971,832.992920 403.042511,829.397522 404.965210,822.736145 
	C405.752716,820.007812 407.917114,819.186523 410.347717,819.128052 
	C415.342041,819.007996 420.341797,819.088074 425.339020,819.125244 
	C428.203644,819.146545 429.597168,820.679016 429.613647,823.510803 
	C429.643707,828.670959 429.693359,833.831055 429.688660,838.991211 
	C429.686035,841.876343 428.329346,844.009094 426.003540,845.699463 
	C411.919647,855.935730 389.266571,850.670471 384.567139,833.660889 
	C384.406006,833.077759 384.014191,832.558411 383.162354,830.913208 
	C379.328461,842.701782 371.638184,849.048401 360.493256,851.037048 
	C354.108490,852.176208 348.264374,849.936890 342.846039,846.981323 
	C332.032440,841.082703 327.830475,826.239502 332.960297,813.198975 
	C337.281769,802.213379 351.806946,795.918091 365.354126,799.479797 
M350.777527,834.936646 
	C351.508728,835.319702 352.202881,835.817932 352.977142,836.067322 
	C358.518585,837.852356 363.321228,836.507874 366.336700,832.384949 
	C369.582336,827.947266 369.517975,821.414856 366.181671,816.655762 
	C363.540344,812.888000 358.758087,811.594666 353.307343,813.173950 
	C344.638702,815.685669 342.941925,827.168396 350.777527,834.936646 
z"/>
<path fill="#000000" opacity="1.000000" stroke="none" 
	d="
M561.079102,787.577515 
	C555.389343,787.706360 550.084778,787.808228 544.779785,787.862671 
	C541.492920,787.896423 539.122070,786.953796 538.232178,783.194153 
	C537.320312,779.341736 535.042480,776.789734 530.392456,777.240479 
	C525.684753,777.696838 520.291687,775.614563 518.223267,782.645447 
	C516.915955,787.089050 507.355743,789.644165 503.554199,787.074646 
	C501.927704,785.975403 502.418549,784.487305 503.027344,783.065857 
	C509.043182,769.019531 515.093628,754.987915 521.077576,740.928040 
	C522.436096,737.736145 524.650269,736.580322 528.119629,736.668762 
	C531.624512,736.758057 534.016296,737.554626 535.507690,741.149170 
	C540.593384,753.406372 545.970215,765.542664 551.224731,777.729919 
	C551.868652,779.223450 552.151550,780.911926 553.829529,782.182556 
	C555.411865,769.724609 554.175903,757.424377 554.695557,745.176575 
	C554.816040,742.336121 552.824158,738.162964 557.168945,737.031494 
	C561.536499,735.894104 565.431702,736.973694 568.419617,741.265564 
	C572.751282,747.487732 577.759766,753.238708 582.599792,759.342224 
	C585.395630,757.396973 584.618958,755.053894 584.718811,753.064697 
	C584.860474,750.241577 584.749939,747.405945 584.753174,744.575684 
	C584.761597,737.115051 585.212585,736.891357 592.683167,736.721436 
	C597.633057,736.608948 599.128662,739.006226 599.107117,743.415588 
	C599.046936,755.735107 599.141785,768.055786 599.020874,780.374451 
	C598.996887,782.813232 600.499939,786.498413 596.906250,787.227051 
	C592.894104,788.040405 588.371399,789.309387 585.019348,784.918152 
	C580.985291,779.633484 576.707153,774.534790 572.519409,769.367981 
	C571.500977,768.111511 570.747131,766.524597 568.834778,766.183655 
	C566.929260,767.710388 567.624084,769.745422 567.644714,771.679688 
	C567.690674,775.994873 567.777466,780.318237 567.571350,784.625061 
	C567.357056,789.099487 563.744202,787.051270 561.079102,787.577515 
z"/>
<path fill="#000000" opacity="1.000000" stroke="none" 
	d="
M546.839905,911.295715 
	C543.278564,910.007874 541.879517,907.062134 539.948181,904.590088 
	C538.065735,902.180603 536.988892,898.915955 533.341980,897.908752 
	C531.359863,900.252075 532.081299,903.025757 532.226196,905.514282 
	C532.471497,909.729004 531.106873,911.913940 526.598816,911.391296 
	C525.613708,911.277161 524.587708,911.285583 523.605164,911.418762 
	C519.796631,911.934814 518.359497,910.734314 518.460327,906.514587 
	C518.774658,893.362915 518.592407,880.199219 518.586731,867.040161 
	C518.583984,860.597046 518.570129,860.523071 524.817627,860.705261 
	C530.772583,860.878967 536.720764,860.211121 542.644165,862.093384 
	C552.884216,865.347168 557.620117,878.198059 551.539978,887.151611 
	C548.158813,892.130737 549.068542,896.725464 554.014526,900.406372 
	C555.522461,901.528625 556.743713,901.494141 557.926453,900.158142 
	C559.028870,898.912842 560.129944,897.645813 561.057983,896.271118 
	C562.975098,893.431458 564.932922,892.783630 567.289795,895.780823 
	C567.794861,896.423096 568.458069,896.999023 569.160461,897.417419 
	C571.399841,898.750793 574.345703,899.972473 575.941895,897.601440 
	C577.922424,894.659363 574.336304,893.892578 572.579468,892.794067 
	C569.348511,890.773376 565.731567,889.401001 562.888855,886.719604 
	C558.314270,882.404663 556.433105,875.693481 559.050476,869.849915 
	C561.433105,864.530396 565.826904,861.167236 571.835266,860.765869 
	C578.008362,860.353516 584.107056,860.214172 589.006714,865.347412 
	C592.473450,868.979492 589.069946,871.100586 587.648865,873.504395 
	C586.235901,875.894470 584.436768,878.503906 580.866272,876.379028 
	C580.014832,875.872314 579.091309,875.479492 578.180115,875.081970 
	C576.507080,874.352112 574.727051,874.122559 573.893066,876.077881 
	C573.039673,878.078674 574.988770,878.519653 576.256897,879.187622 
	C578.310608,880.269653 580.404541,881.275391 582.455994,882.361450 
	C589.849426,886.275696 594.057800,893.712830 592.233215,899.596130 
	C589.384399,908.782227 580.918579,915.336670 572.261230,912.819214 
	C563.772400,910.350769 555.530334,912.021301 546.839905,911.295715 
M532.686218,879.785583 
	C535.050232,881.573547 537.300415,881.577942 538.764221,878.823425 
	C539.713074,877.037964 538.797241,875.634705 536.743896,875.306946 
	C533.842590,874.843933 531.776245,875.450928 532.686218,879.785583 
z"/>
<path fill="#000000" opacity="1.000000" stroke="none" 
	d="
M588.374146,849.407471 
	C586.951599,849.484558 585.955139,849.597412 584.958374,849.599854 
	C578.939514,849.614563 578.683105,849.236511 578.665588,843.098633 
	C578.630920,830.958618 578.412109,818.818970 578.416260,806.679138 
	C578.417175,803.885437 577.154236,799.739441 581.012817,799.057556 
	C585.136475,798.328735 590.049438,797.033936 593.293152,801.827332 
	C595.716125,805.407837 598.371216,808.830688 600.832031,812.386536 
	C601.877991,813.897949 602.862549,815.404785 604.760010,816.458008 
	C609.270264,812.825989 611.633362,807.598572 614.906860,803.088806 
	C617.737244,799.189453 623.054504,797.362854 627.519531,798.723816 
	C629.500366,799.327515 630.013489,800.877747 630.016602,802.591431 
	C630.042603,816.904419 630.076965,831.218201 629.945679,845.530273 
	C629.902588,850.223450 626.148315,849.964417 623.018188,849.811401 
	C619.858459,849.657104 615.936523,850.243408 616.015930,845.025024 
	C616.104126,839.229309 616.036133,833.431213 616.036133,827.208496 
	C612.505981,827.997375 611.632202,830.687073 610.200134,832.719971 
	C605.600769,839.249084 603.406311,839.308777 598.754517,833.019287 
	C597.492859,831.313416 596.449585,829.362976 593.773132,827.948059 
	C592.638184,833.582764 593.290405,838.980591 593.226929,844.305908 
	C593.189636,847.432983 592.435608,849.570190 588.374146,849.407471 
z"/>
<path fill="#000000" opacity="1.000000" stroke="none" 
	d="
M671.895264,830.861084 
	C671.689636,835.694519 671.231812,840.195740 671.417603,844.670166 
	C671.672180,850.798889 667.126770,849.505371 663.835266,849.794739 
	C660.440308,850.093140 658.369812,848.974670 658.467529,844.672119 
	C658.762451,831.680664 658.507690,818.677612 658.651733,805.681091 
	C658.678284,803.286560 657.306091,799.718994 661.075806,798.986816 
	C664.587524,798.304749 668.337646,797.938049 671.046631,801.605347 
	C675.099243,807.091553 679.368591,812.418945 683.603638,817.768188 
	C684.701172,819.154541 685.545044,820.911926 688.168884,821.429810 
	C689.389587,816.353455 688.682495,811.246948 688.771179,806.224792 
	C688.888855,799.562805 694.922363,795.936523 700.836365,799.201233 
	C703.288574,800.554810 703.090881,803.080933 703.093201,805.412842 
	C703.104980,817.576843 703.156799,829.741394 703.042480,841.904358 
	C703.019104,844.390381 704.217346,848.002502 700.859314,848.862488 
	C697.141357,849.814697 692.753357,850.839966 689.627930,847.246460 
	C685.480835,842.478271 681.641602,837.442993 677.645630,832.542358 
	C676.191772,830.759338 674.667725,829.033508 673.207153,827.318542 
	C671.443909,828.132202 672.265747,829.514832 671.895264,830.861084 
z"/>
<path fill="#000000" opacity="1.000000" stroke="none" 
	d="
M414.739807,889.715332 
	C414.547424,874.659058 419.699036,865.150940 431.448334,861.923279 
	C452.030426,856.269226 467.030853,867.474304 467.055939,888.398132 
	C467.071136,901.052429 454.432617,913.206970 441.554169,913.058777 
	C428.400085,912.907288 416.655060,905.742920 414.739807,889.715332 
M435.714081,875.288452 
	C429.367249,878.851746 427.074310,886.458801 430.449066,892.755798 
	C433.547668,898.537598 440.377625,900.703674 446.265198,897.771729 
	C451.631042,895.099548 454.114594,887.850830 451.707977,881.885864 
	C449.117554,875.465332 442.968781,872.736755 435.714081,875.288452 
z"/>
<path fill="#000000" opacity="1.000000" stroke="none" 
	d="
M644.022339,778.920410 
	C633.675964,788.648621 621.692810,790.346191 608.618774,787.787659 
	C605.536438,787.184509 604.705994,785.531250 604.731445,782.557800 
	C604.845398,769.258667 604.847534,755.956909 604.703857,742.658142 
	C604.657959,738.408142 606.288818,736.625366 610.592651,736.713562 
	C618.687683,736.879578 626.807556,736.212341 634.595825,739.425964 
	C650.152649,745.845093 653.194702,763.096680 646.342468,775.240601 
	C645.690186,776.396606 644.945190,777.500366 644.022339,778.920410 
M619.239075,763.475647 
	C619.247253,764.964661 619.231323,766.454285 619.267822,767.942566 
	C619.408020,773.658386 621.699463,775.254089 627.118652,773.423706 
	C635.496765,770.593994 636.124268,762.760498 633.645630,756.813843 
	C631.938232,752.717529 626.678467,750.275330 622.437683,751.293823 
	C617.610657,752.453186 619.821228,756.605164 619.261414,759.546509 
	C619.079224,760.504028 619.237915,761.526367 619.239075,763.475647 
z"/>
<path fill="#000000" opacity="1.000000" stroke="none" 
	d="
M746.149902,802.678528 
	C751.942200,807.452820 746.108398,810.568115 744.737122,813.984314 
	C743.469910,817.140869 740.996704,815.125671 738.906311,814.047363 
	C733.507446,811.262451 726.833130,811.979980 723.637878,815.510071 
	C720.148193,819.365234 719.522156,827.052734 722.299622,831.943665 
	C724.981140,836.665649 732.732605,838.085144 737.378967,834.694763 
	C736.964844,833.410950 735.783752,833.681030 734.881165,833.552856 
	C728.443359,832.638489 726.174805,829.086426 727.993896,822.779480 
	C728.524719,820.939270 729.702881,819.887512 731.541626,819.818298 
	C737.172668,819.606079 742.807251,819.427551 748.441528,819.389893 
	C750.947205,819.373108 751.925903,821.200562 751.964294,823.398315 
	C752.063293,829.053589 752.239990,834.722778 751.955994,840.364868 
	C751.710510,845.242126 747.384521,846.509705 743.823730,848.130493 
	C729.539246,854.632446 714.304932,849.540283 708.363220,836.384949 
	C704.114258,826.977417 706.402405,811.440186 713.034119,805.613159 
	C721.669495,798.025574 735.675720,795.670654 746.149902,802.678528 
z"/>
<path fill="#000000" opacity="1.000000" stroke="none" 
	d="
M455.181641,740.635742 
	C455.894073,738.580505 456.728912,737.003235 458.647430,736.917664 
	C466.617065,736.562256 474.679688,735.919617 482.237976,739.241760 
	C488.339691,741.923706 491.241913,749.804626 488.304443,756.293213 
	C486.876312,759.447815 487.283417,761.695679 488.852325,764.581177 
	C494.696655,775.330261 488.872650,785.734375 476.587250,787.555054 
	C470.814789,788.410461 465.227661,789.901306 459.344971,788.120361 
	C456.065948,787.127747 454.626648,785.325867 454.917419,781.985107 
	C456.104034,768.352722 454.314697,754.707092 455.181641,740.635742 
M471.214905,773.493896 
	C473.246033,774.175598 475.274017,774.474365 475.998230,771.834290 
	C476.377594,770.451172 475.155182,769.632568 473.930115,769.667297 
	C471.904144,769.724548 469.682281,769.917603 471.214905,773.493896 
z"/>
<path fill="#000000" opacity="1.000000" stroke="none" 
	d="
M292.152161,807.812561 
	C292.045654,798.730835 292.047943,798.609497 300.514008,798.768677 
	C305.933197,798.870605 311.294067,798.277527 316.744537,800.222290 
	C327.158844,803.938232 332.206757,816.195496 325.514984,824.992371 
	C321.614075,830.120361 323.337494,833.286194 326.666260,836.909119 
	C329.804596,840.324707 332.413849,844.083618 334.850433,848.024780 
	C327.523560,851.873596 319.093872,850.000427 314.695801,843.682007 
	C312.727051,840.853638 310.819336,837.992615 307.850281,835.652771 
	C305.260956,838.748352 306.254181,842.039856 306.196136,845.009338 
	C306.105286,849.655762 303.120636,850.137085 299.779419,849.772339 
	C296.713745,849.437622 292.663177,850.967407 292.341003,845.087708 
	C291.667786,832.802307 293.323608,820.530334 292.152161,807.812561 
M306.458527,817.203918 
	C308.160614,819.870178 310.354919,819.422302 312.100220,817.595398 
	C313.372406,816.263916 313.007996,814.336304 311.079987,813.617310 
	C308.531769,812.666870 306.520721,813.181213 306.458527,817.203918 
z"/>
<path fill="#000000" opacity="1.000000" stroke="none" 
	d="
M498.626831,874.012451 
	C498.621094,872.349304 498.617828,871.183533 498.612946,870.017761 
	C498.572937,860.455566 498.955841,860.164001 508.376251,860.725586 
	C511.474152,860.910278 513.167786,862.323975 513.052063,865.307556 
	C512.640564,875.916809 513.921448,886.535217 511.660004,897.150879 
	C509.273926,908.351562 497.229279,914.702881 486.076965,912.092041 
	C473.031494,909.037964 470.367584,900.482666 469.315796,889.877197 
	C468.547363,882.129150 469.015808,874.252930 469.035187,866.434143 
	C469.048035,861.240295 469.875946,860.869324 477.039429,860.691101 
	C481.180023,860.588074 483.709473,861.249023 483.451111,866.339478 
	C483.088562,873.482422 483.362030,880.657104 483.345520,887.818237 
	C483.340881,889.827515 483.434509,891.772522 484.398041,893.639099 
	C486.134155,897.002380 488.357056,899.534424 492.578247,898.642761 
	C496.635254,897.785767 498.337250,894.700378 498.528992,890.992920 
	C498.812469,885.511536 498.618988,880.005432 498.626831,874.012451 
z"/>
<path fill="#000000" opacity="1.000000" stroke="none" 
	d="
M595.785034,885.000000 
	C595.767883,878.512085 595.874207,872.520325 595.688721,866.537598 
	C595.566223,862.586609 596.967285,860.661621 601.139526,860.741699 
	C608.455139,860.882019 615.776794,860.847778 623.093445,860.730652 
	C626.260437,860.680054 627.608704,861.809998 627.475708,865.118835 
	C627.027954,876.260071 628.557129,875.057922 617.638611,875.325317 
	C615.066650,875.388245 611.639954,873.648499 609.775757,877.631714 
	C612.921204,880.007629 616.355103,878.960632 619.507568,878.957642 
	C623.974670,878.953430 625.747803,880.618958 625.524353,885.236572 
	C625.136780,893.246948 625.326904,893.279846 619.598389,893.314575 
	C617.270325,893.328674 614.941467,893.313354 612.614502,893.372498 
	C610.974426,893.414124 609.584900,893.956543 609.552490,895.891357 
	C609.520203,897.812927 610.924500,898.519897 612.517578,898.568176 
	C616.338379,898.684082 620.171143,898.772217 623.986938,898.601135 
	C629.847961,898.338196 628.384949,902.754089 628.789001,905.912415 
	C629.207581,909.183777 628.311096,911.452698 624.343018,911.408020 
	C616.193787,911.316406 608.042786,911.357361 599.892639,911.382690 
	C596.872314,911.392090 595.393677,910.411621 595.548096,906.949341 
	C595.866638,899.810242 595.732544,892.650940 595.785034,885.000000 
z"/>
<path fill="#000000" opacity="1.000000" stroke="none" 
	d="
M256.301544,798.775879 
	C263.665894,799.156189 270.479431,798.481750 277.484344,800.213013 
	C284.293243,801.895996 290.406830,812.339172 289.084473,818.416809 
	C287.326233,826.497559 282.494934,833.329407 273.605316,833.356384 
	C268.319763,833.372437 266.649200,835.137817 267.245209,839.969788 
	C267.265381,840.133484 267.247742,840.301819 267.247101,840.468018 
	C267.211639,849.559387 264.118805,851.784973 255.044785,849.380310 
	C253.061707,848.854736 252.565048,847.736145 252.457840,845.794800 
	C251.687424,831.845154 252.517441,817.906555 252.608429,803.964050 
	C252.623810,801.606567 252.498001,799.108582 256.301544,798.775879 
M274.080780,817.130981 
	C274.088348,813.635010 271.652985,812.868530 269.065155,813.408997 
	C266.365509,813.972839 266.775330,816.907043 267.524261,818.330750 
	C269.733887,822.531006 271.868500,819.625916 274.080780,817.130981 
z"/>
<path fill="#000000" opacity="1.000000" stroke="none" 
	d="
M399.770325,913.207947 
	C386.087769,912.792297 375.962860,905.856445 373.383209,894.060242 
	C370.815308,882.317749 373.098022,871.078552 383.779785,864.103638 
	C391.785278,858.876343 406.363617,859.384827 412.549774,864.749878 
	C415.069855,866.935303 415.600372,869.013428 413.419220,871.505310 
	C411.407562,873.803528 411.158722,878.636536 405.799164,876.199585 
	C402.938904,874.899048 399.857941,873.072510 396.338287,874.159302 
	C391.782959,875.565796 388.081177,877.940002 387.449951,883.111877 
	C386.809479,888.359741 386.857117,893.539795 392.027832,896.889038 
	C396.476501,899.770569 401.317261,899.732422 405.759766,897.413269 
	C409.268585,895.581665 411.453125,894.690369 413.490967,899.217346 
	C416.229889,905.301575 416.220642,906.752625 411.468750,909.410278 
	C407.957672,911.373962 404.123566,912.415588 399.770325,913.207947 
z"/>
<path fill="#000000" opacity="1.000000" stroke="none" 
	d="
M768.821045,478.630981 
	C777.619324,480.071808 785.834351,482.372314 793.959900,484.917938 
	C802.305664,487.532562 810.520081,490.568054 818.778320,493.458221 
	C820.027527,493.895355 821.284851,494.416229 822.390930,495.127563 
	C823.676453,495.954285 824.862610,497.110657 824.000488,498.832184 
	C823.270935,500.289185 821.962891,500.955444 820.253845,500.571472 
	C810.442871,498.367310 800.641602,496.118256 790.813904,493.991272 
	C783.231506,492.350220 775.514526,491.239502 768.037231,489.225159 
	C756.760315,486.187164 745.049927,484.186096 735.094971,477.431885 
	C733.408386,476.287628 730.642151,475.420746 731.518921,472.754608 
	C732.436401,469.964752 735.223022,470.227539 737.519897,470.724731 
	C747.922241,472.976410 758.359253,475.111542 768.821045,478.630981 
z"/>
<path fill="#000000" opacity="1.000000" stroke="none" 
	d="
M246.414307,253.518387 
	C258.016083,258.939240 270.000977,262.541626 280.853821,268.727081 
	C285.080048,271.135803 288.547943,274.513336 292.302765,277.521118 
	C293.641174,278.593231 294.630524,280.001862 293.481812,281.860718 
	C292.209503,283.919464 290.400726,283.526917 288.634888,282.801178 
	C262.698730,272.141785 236.723343,261.561493 212.678574,246.901978 
	C211.688599,246.298431 210.747559,245.591965 209.868866,244.834671 
	C208.914246,244.011948 208.470810,242.943588 209.084244,241.714493 
	C209.614410,240.652222 210.657776,240.707703 211.665955,240.613358 
	C214.340744,240.363068 216.438232,241.984680 218.736099,242.832352 
	C227.895706,246.211349 236.974396,249.809631 246.414307,253.518387 
z"/>
<path fill="#000000" opacity="1.000000" stroke="none" 
	d="
M637.215576,800.502441 
	C641.062744,797.512268 645.118652,798.892151 648.998535,799.009521 
	C650.775391,799.063232 651.268982,800.736572 651.268555,802.364563 
	C651.264954,816.851990 651.236145,831.339478 651.260376,845.826904 
	C651.264587,848.335449 650.051880,849.486145 647.656982,849.609985 
	C647.490906,849.618530 647.323853,849.638794 647.158752,849.628784 
	C635.663696,848.937500 636.761292,850.562683 636.805115,839.862122 
	C636.858215,826.880554 636.941040,813.899048 637.215576,800.502441 
z"/>
<path fill="#000000" opacity="1.000000" stroke="none" 
	d="
M271.282196,231.669281 
	C265.629822,222.694366 258.945251,214.740356 255.585617,204.843079 
	C255.426224,204.373489 255.033844,203.943939 254.999710,203.477478 
	C254.827927,201.129684 253.106552,198.122131 256.069916,196.762299 
	C258.814819,195.502716 260.192261,198.442017 261.391327,200.227646 
	C273.410492,218.126541 285.727112,235.857819 294.988739,255.427673 
	C296.327179,258.255768 298.652435,261.126495 295.966705,265.929108 
	C286.521790,254.997467 279.429871,243.156433 271.282196,231.669281 
z"/>
<path fill="#000000" opacity="1.000000" stroke="none" 
	d="
M503.133362,499.207031 
	C497.896271,499.869446 494.679871,495.811066 496.589020,491.504517 
	C497.560913,489.312164 499.299957,488.283264 501.726257,488.549011 
	C504.609985,488.864868 505.406372,491.017548 505.792267,493.382660 
	C506.167297,495.681305 505.253326,497.553467 503.133362,499.207031 
z"/>
<path fill="#000000" opacity="1.000000" stroke="none" 
	d="
M499.984741,308.276672 
	C500.185699,305.946930 499.383759,303.218109 502.296173,303.156250 
	C504.901337,303.100922 505.142303,305.585419 505.121765,307.617462 
	C505.062866,313.434753 504.881531,319.250732 504.761292,325.067505 
	C504.723785,326.882385 504.114746,328.268494 501.295258,329.135071 
	C498.598724,322.387299 500.568787,315.423401 499.984741,308.276672 
z"/>
<path fill="#000000" opacity="1.000000" stroke="none" 
	d="
M490.784729,337.390656 
	C490.863678,333.986298 492.494171,334.429840 494.278412,335.678009 
	C499.612671,339.409760 504.851868,340.290466 510.023621,335.399933 
	C510.990845,334.485260 512.181580,334.205566 513.066772,335.330658 
	C513.960327,336.466370 513.091980,337.462982 512.355530,338.410736 
	C507.766510,344.316559 496.822968,343.973236 490.784729,337.390656 
z"/>
<path fill="#000000" opacity="1.000000" stroke="none" 
	d="
M490.055939,323.883057 
	C486.646576,325.549164 485.587769,323.215363 484.707794,321.101349 
	C483.636536,318.527985 485.056000,316.552856 487.043152,315.149658 
	C488.903687,313.835938 490.236664,315.140228 490.991699,316.717865 
	C492.124512,319.084930 492.252808,321.504974 490.055939,323.883057 
z"/>
<path fill="#000000" opacity="1.000000" stroke="none" 
	d="
M542.996216,313.996887 
	C545.824036,316.371399 545.738098,323.392456 542.817871,325.293152 
	C541.572327,326.103882 540.294067,326.041473 539.132629,325.084320 
	C538.066223,324.205536 537.994629,323.044708 538.608459,321.940308 
	C539.974915,319.481964 541.447754,317.082794 542.958130,314.311676 
	C543.038940,313.963837 543.010925,313.987122 542.996216,313.996887 
z"/>
<path fill="#000000" opacity="1.000000" stroke="none" 
	d="
M513.112915,321.461090 
	C512.904114,320.607208 512.737915,320.106171 512.779297,319.622925 
	C512.978394,317.299194 513.890015,315.308441 516.359741,314.867798 
	C517.889709,314.594818 518.757385,315.977325 519.047607,317.318451 
	C519.577393,319.766602 520.185791,322.476227 517.694336,324.183197 
	C515.077271,325.976257 514.373108,323.313934 513.112915,321.461090 
z"/>
<path fill="#000000" opacity="1.000000" stroke="none" 
	d="
M523.852600,303.190369 
	C524.670532,304.604218 525.892639,305.783661 524.426758,306.974548 
	C523.344727,307.853638 522.077759,307.294708 521.316895,306.385681 
	C519.541199,304.264221 516.515198,304.274170 514.496887,302.524872 
	C517.415649,299.215027 518.799866,299.309692 523.852600,303.190369 
z"/>
</svg>