<?xml version="1.0" standalone="no"?>
<!DOCTYPE svg PUBLIC "-//W3C//DTD SVG 20010904//EN"
 "http://www.w3.org/TR/2001/REC-SVG-20010904/DTD/svg10.dtd">
<svg version="1.0" xmlns="http://www.w3.org/2000/svg"
 width="1000.000000pt" height="1000.000000pt" viewBox="0 0 1000.000000 1000.000000"
 preserveAspectRatio="xMidYMid meet">

<g transform="translate(0.000000,1000.000000) scale(0.100000,-0.100000)"
fill="#000000" stroke="none">
<path d="M2545 8031 c-9 -16 33 -127 73 -190 53 -85 216 -324 275 -404 31 -42
54 -64 60 -58 5 5 4 18 -4 32 -7 13 -14 26 -14 29 -1 6 -56 116 -76 150 -84
148 -285 450 -300 450 -4 0 -10 -4 -14 -9z"/>
<path d="M3344 7958 c-3 -5 -1 -14 4 -21 10 -14 53 -136 75 -217 46 -165 58
-329 36 -486 -39 -285 -255 -489 -585 -555 -33 -6 -152 -14 -266 -16 -196 -4
-207 -5 -213 -24 -5 -15 4 -29 42 -61 58 -49 243 -239 243 -250 0 -4 13 -26
28 -50 49 -73 102 -213 119 -308 14 -84 14 -99 -2 -188 -33 -184 -105 -325
-273 -535 -92 -116 -91 -121 41 -136 182 -21 353 -59 425 -95 156 -76 260
-142 317 -200 38 -39 111 -151 140 -216 29 -66 37 -143 21 -200 l-7 -25 152 2
c83 1 154 4 156 7 2 2 -16 55 -41 118 -25 63 -46 119 -46 126 0 7 -3 12 -8 12
-29 0 -46 258 -19 292 6 9 25 18 40 20 15 2 26 8 25 13 -2 6 -48 10 -113 10
-91 0 -110 -3 -110 -15 0 -10 10 -15 28 -15 33 -1 44 -16 53 -71 12 -79 -9
-244 -30 -246 -5 0 -21 20 -34 43 -52 92 -125 189 -182 238 -32 28 -61 51 -65
51 -3 0 -25 13 -48 28 -68 45 -173 91 -260 113 -104 26 -127 30 -202 40 -44 5
-117 12 -162 16 -46 3 -83 9 -83 14 0 5 4 9 10 9 16 0 159 141 194 190 108
157 176 346 176 495 0 42 -22 170 -38 220 -30 96 -105 223 -190 323 -42 49
-168 158 -218 188 -35 21 -5 27 78 16 144 -20 324 -10 468 26 49 13 166 61
220 91 105 58 231 217 274 343 44 133 61 375 35 498 -6 28 -8 54 -5 57 3 3 26
-12 51 -33 190 -162 309 -239 485 -316 97 -43 278 -98 322 -98 41 0 51 -13 40
-51 -22 -69 -32 -170 -32 -310 0 -171 -21 -382 -46 -459 -25 -77 -72 -147
-134 -200 -114 -96 -211 -210 -244 -285 -21 -48 -36 -100 -36 -123 l0 -22
1051 0 c957 0 1051 1 1045 16 -3 9 -9 28 -12 42 -15 72 -69 155 -160 250 -104
107 -149 174 -190 284 -37 101 -58 228 -74 448 -9 132 -20 215 -39 295 -27
112 -61 215 -73 215 -4 0 -8 6 -8 13 0 8 -13 33 -30 55 l-30 41 33 26 c17 13
79 60 137 102 57 43 161 133 229 200 69 67 127 120 129 118 2 -2 4 -35 3 -72
-1 -105 29 -245 70 -325 5 -10 9 -22 9 -28 0 -32 156 -230 182 -230 4 0 27
-13 51 -30 25 -16 51 -30 59 -30 8 0 18 -4 24 -8 9 -8 46 -20 136 -42 28 -7
98 -11 178 -9 151 5 139 17 100 -106 -28 -89 -38 -138 -51 -250 -10 -91 -4
-259 10 -299 5 -11 14 -39 21 -61 36 -113 91 -196 197 -296 54 -50 96 -78 179
-119 122 -59 133 -64 189 -78 22 -6 59 -15 81 -21 23 -6 53 -11 68 -11 14 0
26 -5 26 -10 0 -11 -22 -21 -90 -41 -99 -28 -248 -102 -327 -161 -119 -91
-243 -279 -291 -443 -45 -153 -53 -328 -23 -484 6 -30 8 -57 6 -59 -2 -3 -28
7 -57 21 -29 14 -73 32 -98 40 -109 36 -275 29 -373 -16 l-54 -25 -7 97 c-6
101 -12 134 -53 296 -14 55 -29 124 -35 152 -10 54 -28 63 -28 15 0 -15 -7
-65 -15 -112 -8 -47 -33 -206 -55 -355 -22 -148 -44 -290 -49 -315 -5 -24 -8
-48 -5 -51 2 -4 32 -7 67 -8 l64 -1 33 65 c37 73 119 157 177 182 52 22 277
21 348 -1 109 -35 178 -47 187 -34 4 7 8 63 8 123 1 113 21 318 40 415 14 71
91 230 145 300 81 104 199 201 323 264 104 53 294 116 347 116 18 0 25 5 25
20 0 17 -7 20 -44 20 -55 0 -255 58 -356 102 -322 143 -453 290 -501 564 -25
142 11 352 97 569 15 39 36 82 46 97 10 15 15 29 10 32 -4 2 -35 -4 -67 -15
-78 -26 -94 -29 -201 -40 -196 -20 -381 39 -497 158 -57 58 -67 72 -115 168
-37 75 -65 189 -81 330 -6 49 -14 92 -19 97 -5 5 -58 -38 -121 -98 -109 -104
-256 -221 -396 -315 l-69 -47 -36 28 c-49 40 -113 66 -196 80 -108 19 -305 1
-376 -34 -17 -9 -35 -16 -39 -16 -38 0 -229 -160 -229 -191 0 -5 -8 -18 -17
-29 -20 -24 -53 -25 -114 -6 -24 8 -83 26 -131 40 -47 15 -134 52 -194 82 -92
48 -143 78 -268 164 -71 48 -165 136 -349 327 -48 50 -90 87 -93 81z m1822
-781 c13 -38 33 -88 45 -112 56 -113 147 -194 188 -168 29 18 58 5 76 -34 14
-30 15 -43 6 -73 -16 -54 -47 -88 -85 -96 -27 -5 -35 -12 -40 -35 -3 -15 -17
-48 -32 -71 -50 -81 -72 -98 -212 -161 -52 -24 -230 -7 -267 25 -5 4 -18 8
-29 8 -21 0 -79 40 -113 79 -13 15 -35 54 -50 88 -22 50 -33 64 -54 68 -39 9
-61 38 -66 89 -8 65 2 91 38 106 26 11 36 11 65 -3 62 -30 127 -16 229 48 98
62 231 217 249 291 10 39 26 25 52 -49z m-298 -757 c22 -11 55 -20 72 -20 17
0 39 -4 49 -9 24 -14 177 20 192 42 18 26 27 -13 28 -120 1 -79 6 -120 14
-125 7 -4 35 -15 62 -24 87 -27 105 -36 105 -51 0 -24 -59 -99 -103 -131 -197
-140 -437 -122 -604 44 -88 87 -84 104 34 134 25 6 52 22 67 41 24 28 26 38
26 128 0 81 4 111 15 111 1 0 20 -9 43 -20z"/>
<path d="M5140 6990 c0 -5 7 -10 15 -10 9 0 27 -7 41 -16 32 -22 44 -10 16 16
-22 21 -72 28 -72 10z"/>
<path d="M5000 6851 c0 -61 4 -112 9 -115 16 -10 21 23 21 125 0 81 -3 99 -15
99 -12 0 -15 -19 -15 -109z"/>
<path d="M4857 6842 c-20 -22 -21 -33 -4 -56 18 -25 47 -11 47 24 0 39 -22 55
-43 32z"/>
<path d="M5137 6842 c-21 -23 -22 -46 -2 -62 22 -19 45 -4 45 28 0 41 -22 58
-43 34z"/>
<path d="M5401 6819 c-24 -32 -22 -59 4 -59 9 0 15 9 15 24 0 14 5 28 10 31
12 7 13 35 2 35 -5 0 -18 -14 -31 -31z"/>
<path d="M4570 6831 c0 -6 5 -13 11 -17 6 -3 8 -17 5 -30 -6 -23 -4 -24 21
-18 16 4 29 8 30 8 1 1 -8 16 -20 34 -21 30 -47 43 -47 23z"/>
<path d="M4900 6650 c0 -22 45 -50 84 -52 70 -2 90 2 115 27 32 31 20 44 -15
16 -35 -28 -109 -28 -144 -1 -28 22 -40 25 -40 10z"/>
<path d="M2085 7591 c-6 -10 72 -65 150 -107 129 -67 215 -108 335 -159 74
-31 151 -65 170 -75 51 -27 168 -68 175 -62 14 15 0 34 -57 78 -85 64 -181
107 -628 284 -123 49 -137 53 -145 41z"/>
<path d="M7321 5286 c-34 -41 229 -144 479 -186 25 -4 110 -22 190 -40 199
-43 230 -47 230 -26 0 9 -12 18 -27 22 -16 4 -46 15 -68 25 -97 43 -454 143
-675 189 -47 10 -92 21 -101 25 -9 3 -21 -1 -28 -9z"/>
<path d="M3930 5207 c0 -3 -7 -31 -15 -62 -8 -30 -21 -79 -29 -108 -54 -199
-70 -385 -41 -482 33 -108 112 -185 190 -185 30 0 35 3 31 18 -3 9 -8 40 -12
67 -3 28 -22 147 -40 265 -49 304 -55 347 -63 417 -4 34 -10 65 -14 69 -4 4
-7 5 -7 1z"/>
<path d="M4971 5106 c-31 -37 9 -103 47 -80 36 23 23 94 -18 94 -10 0 -23 -6
-29 -14z m49 -41 c0 -25 -23 -35 -35 -15 -10 16 2 40 20 40 9 0 15 -9 15 -25z"/>
<path d="M3936 4311 c-7 -10 296 -24 422 -19 46 2 82 7 82 13 0 13 -496 19
-504 6z"/>
<path d="M4905 4290 c-3 -5 -3 -10 2 -10 11 1 1675 -13 1733 -14 68 -1 64 18
-5 25 -103 11 -1723 10 -1730 -1z"/>
<path d="M3306 4232 c-3 -6 -1 -14 6 -19 19 -12 2038 -17 2038 -6 0 6 -314 12
-822 17 -453 3 -911 9 -1019 12 -135 5 -198 3 -203 -4z"/>
<path d="M6285 4210 c-3 -5 0 -13 7 -15 26 -10 273 -1 271 10 -4 14 -269 19
-278 5z"/>
<path d="M3545 4148 c-2 -7 -6 -56 -10 -109 -5 -80 -3 -98 10 -109 19 -16 4
-27 190 141 33 30 71 62 85 71 l25 17 -45 0 c-45 1 -48 -1 -135 -91 -64 -68
-87 -86 -82 -68 3 14 12 52 21 85 8 33 15 63 16 68 0 12 -70 8 -75 -5z"/>
<path d="M5925 4106 c28 -25 58 -46 67 -46 21 0 40 33 36 63 -4 29 -22 28 -26
0 -4 -28 -10 -29 -37 -3 -11 11 -36 22 -55 26 l-35 6 50 -46z"/>
<path d="M6500 4130 c0 -10 26 -53 171 -277 84 -131 119 -168 119 -128 0 24
-76 204 -104 246 -15 21 -26 41 -26 43 0 3 -16 32 -35 65 -35 60 -37 61 -80
61 -25 0 -45 -4 -45 -10z"/>
<path d="M3503 2598 c4 -31 19 -80 99 -343 33 -110 34 -110 67 -113 71 -7 74
-3 117 133 21 69 42 125 45 125 4 0 23 -51 44 -112 52 -157 47 -150 107 -146
l51 3 29 105 c16 58 38 137 49 175 34 118 49 179 49 192 0 9 -17 13 -54 13
l-55 0 -16 -57 c-41 -148 -51 -177 -60 -180 -6 -1 -27 51 -48 117 l-38 120
-48 0 c-27 0 -53 -6 -58 -12 -5 -7 -22 -53 -37 -103 -46 -153 -54 -156 -84
-30 -36 152 -31 145 -103 145 l-61 0 5 -32z m362 -8 c3 -5 1 -10 -4 -10 -6 0
-11 5 -11 10 0 6 2 10 4 10 3 0 8 -4 11 -10z m137 -412 c-7 -7 -12 -8 -12 -2
0 14 12 26 19 19 2 -3 -1 -11 -7 -17z m-37 2 c3 -5 1 -10 -4 -10 -6 0 -11 5
-11 10 0 6 2 10 4 10 3 0 8 -4 11 -10z m-258 -6 c-3 -3 -12 -4 -19 -1 -8 3 -5
6 6 6 11 1 17 -2 13 -5z"/>
<path d="M4190 2628 c0 -2 -1 -111 -1 -243 l-1 -240 152 0 153 0 0 54 0 54
-79 2 c-44 1 -85 3 -92 4 -9 1 -12 12 -10 34 l3 32 78 3 78 3 -3 52 -3 52 -75
5 -75 5 -3 32 -3 32 88 3 88 3 0 55 0 55 -147 3 c-82 1 -148 1 -148 0z m237
-224 c-3 -3 -12 -4 -19 -1 -8 3 -5 6 6 6 11 1 17 -2 13 -5z m-10 -231 c-20 -2
-52 -2 -70 0 -17 2 0 4 38 4 39 0 53 -2 32 -4z"/>
<path d="M4560 2385 l0 -245 105 0 c119 0 167 16 201 67 27 42 25 123 -5 164
-23 30 -23 32 -6 64 13 23 16 45 13 80 -10 89 -60 112 -235 114 l-73 1 0 -245z
m37 -7 c-2 -35 -3 -7 -3 62 0 69 1 97 3 63 2 -35 2 -91 0 -125z m128 130 c30
-13 33 -43 6 -58 -37 -19 -51 -12 -51 23 0 29 6 47 16 47 2 0 15 -5 29 -12z
m105 -52 c0 -3 -4 -8 -10 -11 -5 -3 -10 -1 -10 4 0 6 5 11 10 11 6 0 10 -2 10
-4z m18 -131 c-3 -3 -9 2 -12 12 -6 14 -5 15 5 6 7 -7 10 -15 7 -18z m-90 -8
c20 -23 3 -55 -31 -60 -42 -6 -47 -2 -47 39 0 32 2 34 34 34 18 0 38 -6 44
-13z"/>
<path d="M5212 2593 c-17 -34 -49 -107 -157 -365 -18 -42 -30 -79 -27 -82 3
-4 29 -6 59 -6 l53 0 25 55 24 55 83 0 83 0 19 -48 c11 -26 24 -50 30 -54 16
-11 104 -10 111 2 5 8 -53 153 -160 400 l-32 75 -46 3 c-44 3 -47 2 -65 -35z
m76 -178 c17 -37 15 -45 -13 -45 -26 0 -32 19 -19 54 9 23 19 20 32 -9z"/>
<path d="M5544 2617 c-3 -8 -4 -117 -2 -243 l3 -229 55 0 55 0 2 110 c2 140 2
135 11 135 4 0 21 -19 37 -42 17 -23 46 -60 65 -84 19 -23 50 -61 68 -84 32
-38 37 -41 79 -38 l45 3 0 230 c-1 127 -1 236 -1 243 -1 9 -16 12 -53 10 l-53
-3 -3 -122 c-2 -100 -5 -123 -17 -123 -8 0 -15 4 -15 9 0 5 -31 46 -68 92 -37
46 -78 99 -90 117 -20 28 -29 32 -68 32 -28 0 -47 -5 -50 -13z m386 -437 c0
-5 -8 -10 -17 -10 -15 0 -16 2 -3 10 19 12 20 12 20 0z"/>
<path d="M6055 2619 c-3 -8 -4 -118 -3 -244 l3 -230 120 0 c136 0 171 11 237
77 84 84 80 260 -8 338 -56 48 -98 61 -226 67 -96 5 -119 3 -123 -8z m212 -35
c-3 -3 -12 -4 -19 -1 -8 3 -5 6 6 6 11 1 17 -2 13 -5z m25 -90 c54 -28 73
-104 42 -170 -25 -52 -122 -92 -152 -62 -13 13 -18 239 -5 252 10 10 81 -3
115 -20z"/>
<path d="M2525 1949 c-4 -35 -5 -145 -3 -244 l3 -180 40 -3 c22 -1 51 0 63 3
22 6 24 10 21 75 -2 38 -1 71 1 73 3 3 29 7 58 10 103 11 156 68 156 169 -1
46 -6 64 -28 93 -37 48 -61 56 -193 62 l-111 6 -7 -64z m203 -71 c21 -18 10
-61 -20 -75 -14 -7 -33 -11 -41 -7 -18 7 -28 74 -14 92 11 14 52 8 75 -10z
m-125 -325 c-7 -2 -21 -2 -30 0 -10 3 -4 5 12 5 17 0 24 -2 18 -5z"/>
<path d="M2925 1999 c-3 -8 -4 -118 -3 -244 l3 -230 55 0 55 0 3 78 c3 69 5
77 22 77 11 0 20 -4 20 -9 0 -5 15 -27 33 -50 17 -22 42 -54 54 -70 21 -27 27
-29 93 -29 39 0 70 4 68 8 -2 5 -34 48 -72 95 l-68 86 25 27 c36 40 47 66 47
114 -1 56 -27 107 -67 131 -44 25 -259 38 -268 16z m82 -131 c-3 -7 -5 -2 -5
12 0 14 2 19 5 13 2 -7 2 -19 0 -25z m121 5 c16 -23 15 -30 -9 -54 -13 -13
-30 -19 -47 -17 -23 2 -28 9 -30 36 -5 53 3 65 41 58 17 -3 38 -14 45 -23z
m99 -25 c-3 -8 -6 -5 -6 6 -1 11 2 17 5 13 3 -3 4 -12 1 -19z m-220 -30 c-3
-8 -6 -5 -6 6 -1 11 2 17 5 13 3 -3 4 -12 1 -19z m3 -203 l0 -65 -30 0 c-16 0
-30 4 -30 9 0 4 11 6 25 3 24 -4 25 -3 25 57 0 33 2 61 5 61 3 0 5 -29 5 -65z
m215 -58 c16 -5 15 -5 -4 -4 -14 1 -26 9 -28 17 -3 10 -2 11 4 4 4 -7 17 -14
28 -17z m40 3 c3 -5 1 -10 -4 -10 -6 0 -11 5 -11 10 0 6 2 10 4 10 3 0 8 -4
11 -10z"/>
<path d="M3450 1990 c-100 -47 -135 -106 -135 -230 0 -92 14 -127 72 -182 101
-95 309 -78 377 31 60 94 68 174 28 264 -41 90 -104 129 -217 134 -65 3 -88 0
-125 -17z m170 -105 c62 -32 90 -133 54 -195 -51 -85 -185 -77 -228 14 -21 45
-20 79 5 127 31 62 106 86 169 54z m-263 -187 c-3 -8 -6 -5 -6 6 -1 11 2 17 5
13 3 -3 4 -12 1 -19z"/>
<path d="M3989 1996 c-56 -20 -97 -54 -122 -99 -18 -35 -22 -58 -22 -139 0
-91 2 -99 30 -139 41 -57 69 -76 146 -96 63 -16 69 -16 133 1 37 10 81 30 97
44 l30 24 -3 102 -3 101 -110 0 -110 0 -3 -52 -3 -52 53 -3 c46 -3 53 -6 56
-25 3 -18 -3 -23 -32 -29 -72 -13 -135 16 -156 71 -19 51 -8 128 23 159 38 38
137 44 171 11 21 -21 41 -10 61 36 17 37 17 40 0 59 -35 39 -161 53 -236 26z
m-81 -361 c-3 -3 -9 2 -12 12 -6 14 -5 15 5 6 7 -7 10 -15 7 -18z m139 -81
c-3 -3 -12 -4 -19 -1 -8 3 -5 6 6 6 11 1 17 -2 13 -5z"/>
<path d="M4335 1999 c-3 -8 -4 -118 -3 -244 l3 -230 60 0 60 0 -4 74 c-4 106
9 107 84 8 l61 -82 108 0 108 0 17 40 c26 65 26 65 110 65 l78 0 24 -52 24
-53 130 0 130 0 0 127 c0 91 3 124 11 120 16 -9 84 -100 84 -111 0 -13 37 -24
50 -16 10 6 41 50 80 111 8 13 18 24 22 24 4 0 9 -57 10 -127 l3 -128 55 0 55
0 0 240 0 240 -45 3 c-25 1 -50 -1 -55 -5 -6 -5 -37 -45 -69 -90 -31 -46 -63
-83 -69 -83 -7 0 -40 41 -75 90 l-64 90 -54 0 -54 0 -2 -232 c-2 -143 -7 -233
-13 -235 -5 -1 -46 83 -90 188 -121 288 -112 273 -166 277 l-46 3 -43 -98
c-23 -54 -53 -120 -65 -148 -12 -27 -33 -78 -46 -112 -13 -35 -29 -63 -35 -63
-6 0 -32 28 -58 61 l-48 61 33 34 c31 32 34 40 34 98 0 123 -41 155 -210 163
-93 5 -115 3 -120 -8z m222 -35 c-3 -3 -12 -4 -19 -1 -8 3 -5 6 6 6 11 1 17
-2 13 -5z m1113 -4 c0 -5 -2 -10 -4 -10 -3 0 -8 5 -11 10 -3 6 -1 10 4 10 6 0
11 -4 11 -10z m-1155 -72 c50 -23 25 -88 -34 -88 -24 0 -37 36 -27 75 7 28 22
31 61 13z m433 -90 c22 -22 14 -48 -13 -48 -25 0 -31 13 -19 44 7 19 16 20 32
4z m-535 -245 c-7 -2 -21 -2 -30 0 -10 3 -4 5 12 5 17 0 24 -2 18 -5z m344 1
c-3 -3 -12 -4 -19 -1 -8 3 -5 6 6 6 11 1 17 -2 13 -5z m901 -1 c-10 -2 -26 -2
-35 0 -10 3 -2 5 17 5 19 0 27 -2 18 -5z"/>
<path d="M5788 1800 c-1 -115 -2 -225 -2 -242 l-1 -33 60 0 60 0 0 128 c0 70
3 127 7 127 4 0 22 -21 39 -47 18 -27 36 -49 41 -51 4 -2 8 -10 8 -17 0 -16
35 -29 50 -20 10 6 41 50 80 111 8 13 18 24 22 24 4 0 9 -57 10 -127 l3 -128
55 0 55 0 0 240 0 240 -46 3 c-52 3 -56 0 -128 -105 -26 -37 -54 -69 -62 -70
-8 -2 -41 35 -77 87 l-64 90 -54 0 -54 0 -2 -210z m459 138 c-3 -7 -5 -2 -5
12 0 14 2 19 5 13 2 -7 2 -19 0 -25z m3 -380 c0 -5 -13 -8 -30 -8 -16 0 -30 3
-30 8 0 4 14 7 30 7 17 0 30 -3 30 -7z m-387 -5 c-7 -2 -21 -2 -30 0 -10 3 -4
5 12 5 17 0 24 -2 18 -5z"/>
<path d="M6377 2004 c-4 -4 -7 -114 -7 -243 l0 -237 57 -2 c31 -1 59 2 62 7 3
5 4 114 1 243 l-5 233 -50 3 c-28 2 -54 0 -58 -4z m66 -451 c-7 -2 -19 -2 -25
0 -7 3 -2 5 12 5 14 0 19 -2 13 -5z"/>
<path d="M6584 1997 c-2 -7 -3 -116 -2 -242 l3 -230 55 0 55 0 0 119 c0 71 4
121 10 123 6 1 29 -23 52 -55 24 -31 67 -86 96 -122 52 -64 54 -65 101 -65
l49 0 -1 220 c-1 121 -1 230 -2 243 0 21 -4 23 -52 20 l-53 -3 -3 -122 c-2
-100 -5 -123 -17 -123 -8 0 -15 4 -15 9 0 7 -109 147 -171 219 -21 25 -96 32
-105 9z m386 -437 c0 -5 -10 -10 -22 -9 -22 0 -22 1 -3 9 11 5 21 9 23 9 1 1
2 -3 2 -9z m-317 -7 c-7 -2 -21 -2 -30 0 -10 3 -4 5 12 5 17 0 24 -2 18 -5z"/>
<path d="M7182 1979 c-52 -27 -65 -40 -91 -89 -70 -131 -19 -303 104 -354 89
-37 221 -23 279 30 25 24 26 29 26 129 l0 105 -110 0 -111 0 3 -57 3 -58 41 3
c28 2 45 -2 54 -13 37 -45 -91 -60 -148 -18 -15 11 -34 38 -41 61 -13 36 -13
47 0 88 26 84 101 114 184 74 25 -12 48 -21 49 -19 2 2 14 24 26 48 l22 45
-22 18 c-30 24 -84 38 -151 38 -43 0 -70 -7 -117 -31z m148 -213 c0 -3 -4 -8
-10 -11 -5 -3 -10 -1 -10 4 0 6 5 11 10 11 6 0 10 -2 10 -4z m139 -43 c-1 -53
-6 -49 -11 10 -2 20 0 37 4 37 4 0 8 -21 7 -47z m-7 -125 c-8 -8 -9 -4 -5 13
4 13 8 18 11 10 2 -7 -1 -18 -6 -23z"/>
<path d="M3878 1380 c-106 -32 -176 -170 -148 -291 16 -68 31 -97 67 -131 68
-64 208 -83 291 -39 24 12 45 28 48 36 6 15 -9 49 -34 78 -15 16 -16 16 -35 0
-24 -22 -122 -25 -160 -4 -64 34 -76 155 -22 211 38 40 86 48 149 26 53 -19
51 -20 82 37 14 26 14 30 -2 48 -9 10 -33 23 -53 29 -42 12 -144 12 -183 0z
m99 -66 c-3 -3 -12 -4 -19 -1 -8 3 -5 6 6 6 11 1 17 -2 13 -5z"/>
<path d="M4301 1383 c-14 -3 -50 -30 -81 -61 -47 -48 -58 -66 -69 -114 -22
-100 16 -217 86 -265 109 -76 275 -60 352 34 32 39 61 119 61 167 0 88 -55
188 -124 223 -31 16 -177 27 -225 16z m144 -114 c45 -17 75 -65 75 -123 0 -85
-46 -136 -125 -136 -128 0 -173 183 -62 250 37 23 67 25 112 9z m112 -81 c-3
-8 -6 -5 -6 6 -1 11 2 17 5 13 3 -3 4 -12 1 -19z"/>
<path d="M4696 1280 c-17 -282 37 -383 203 -383 90 0 133 20 171 79 l30 48 0
183 0 184 -55 -3 -56 -3 -2 -155 c-3 -165 -12 -204 -51 -214 -40 -11 -63 -6
-87 20 -23 24 -24 33 -29 187 l-5 162 -56 3 -56 3 -7 -111z m171 -346 c-3 -3
-12 -4 -19 -1 -8 3 -5 6 6 6 11 1 17 -2 13 -5z"/>
<path d="M5185 1379 c-3 -8 -4 -118 -3 -244 l3 -230 55 0 55 0 3 78 c4 96 20
101 72 25 73 -108 74 -108 151 -107 38 1 69 4 69 6 0 3 -12 19 -26 37 -111
137 -119 151 -88 177 64 53 56 188 -16 239 -25 17 -49 22 -149 27 -99 5 -121
3 -126 -8z m179 -110 c14 -7 27 -18 30 -26 9 -22 -12 -52 -39 -59 -41 -10 -55
1 -55 44 0 55 14 64 64 41z m123 -51 c-3 -7 -5 -2 -5 12 0 14 2 19 5 13 2 -7
2 -19 0 -25z m-252 -278 c3 -5 1 -10 -4 -10 -6 0 -11 5 -11 10 0 6 2 10 4 10
3 0 8 -4 11 -10z m30 0 c3 -5 1 -10 -4 -10 -6 0 -11 5 -11 10 0 6 2 10 4 10 3
0 8 -4 11 -10z m262 -6 c-3 -3 -12 -4 -19 -1 -8 3 -5 6 6 6 11 1 17 -2 13 -5z"/>
<path d="M5670 1382 c-60 -28 -90 -73 -90 -134 0 -55 32 -100 97 -133 111 -57
132 -89 68 -101 -34 -6 -41 -3 -101 41 -9 6 -21 -1 -43 -25 -34 -39 -35 -43
-21 -70 16 -30 73 -59 132 -66 110 -13 188 49 188 150 0 66 -32 107 -114 145
-75 36 -94 54 -76 76 18 21 53 19 84 -6 31 -24 42 -19 77 38 l22 35 -26 26
c-22 22 -36 26 -104 29 -43 1 -85 -1 -93 -5z m-22 -207 c-3 -3 -9 2 -12 12 -6
14 -5 15 5 6 7 -7 10 -15 7 -18z"/>
<path d="M5958 1150 c-3 -234 -2 -241 17 -246 11 -3 79 -3 150 -2 l130 3 0 54
0 53 -84 2 c-68 1 -86 4 -95 19 -8 12 -8 22 0 35 9 14 26 17 85 17 l74 0 0 55
0 55 -76 3 c-68 2 -78 5 -82 23 -11 42 0 48 91 51 l87 3 0 55 0 55 -147 3
-147 3 -3 -241z m39 -132 c-3 -8 -6 -5 -6 6 -1 11 2 17 5 13 3 -3 4 -12 1 -19z
m168 -82 c17 -1 -16 -4 -72 -4 -57 -1 -103 1 -103 6 0 6 105 6 175 -2z m60 4
c3 -5 -1 -10 -10 -10 -9 0 -13 5 -10 10 3 6 8 10 10 10 2 0 7 -4 10 -10z"/>
</g>
</svg>
